<?xml version="1.0" encoding="UTF-8"?>
<svg width="59.722" height="53.064" version="1.1" viewBox="0 0 59.722 53.064" xmlns="http://www.w3.org/2000/svg">
  <path d="m54.452 52.744c-1.2913-0.60397-1.9529-1.5898-2.0414-3.042-0.0708-1.1618 0.33559-2.108 1.2245-2.8511l0.61687-0.51564-0.01-3.0769-0.60396-0.38287c-0.33211-0.21058-0.76159-0.62116-0.95433-0.91241l-0.35044-0.52954-0.27038 0.37908c-0.73733 1.0337-1.7149 1.6138-2.9311 1.7393-1.3344 0.13772-2.9065-0.59115-3.5617-1.6513l-0.29547-0.47808-0.27438 0.38456c-0.85816 1.2028-1.8348 1.7124-3.2818 1.7124-1.4396 0-2.4227-0.50974-3.2704-1.6958l-0.26299-0.36795-0.46666 0.63064c-0.90421 1.2219-2.6393 1.7621-4.21 1.3107-0.65678-0.18876-0.92784-0.36748-1.6074-1.0598l-0.81735-0.83276-0.44932 0.60626c-0.8962 1.2092-2.6258 1.7392-4.191 1.2842-0.64182-0.18658-0.9226-0.37264-1.5908-1.0541l-0.81141-0.82754-0.3629 0.50973c-0.64821 0.91046-1.9459 1.5663-3.1024 1.5679-1.1075 0.0015-1.9202-0.363-2.7922-1.2523l-0.80918-0.82527-0.36569 0.51364c-0.20113 0.2825-0.63186 0.67513-0.95719 0.8725l-0.5915 0.35887-0.0042 0.95061-0.0042 0.9506 0.59925 0.49104c0.32959 0.27007 0.76459 0.7723 0.96667 1.1161 0.31278 0.53208 0.36742 0.77372 0.36742 1.625 0 1.1534-0.2478 1.7811-1 2.5333-0.957 0.957-2.3316 1.288-3.5999 0.8667-2.7453-0.91184-3.2814-4.6968-0.88746-6.2654 0.33346-0.21849 0.35405-0.2929 0.35405-1.2799 0-1.0202-0.01016-1.0532-0.38473-1.2469-0.59576-0.30808-1.4443-1.3591-1.6868-2.0893-0.13945-0.41985-0.19702-0.91358-0.15811-1.3561 0.03365-0.38271 0.28954-3.0387 0.56863-5.9022l0.50745-5.2063-1.6371-9.327c-0.9004-5.1298-1.6644-9.372-1.6977-9.427-0.03335-0.055-1.3982-0.1-3.0331-0.1-2.8634 0-2.9885-0.011-3.4119-0.3-1.3039-0.89002-1.1984-2.9608 0.18426-3.6169 0.3903-0.18521 1.0516-0.21644 4.5829-0.21644 4.0601 0 4.1339 0.0048 4.5676 0.3 0.897 0.61049 0.8593 0.46696 2.3403 8.9111 0.7642 4.3572 1.4211 8.0572 1.4598 8.2222 0.07026 0.29977 0.07254 0.3 2.9678 0.2995l2.8975-5.33e-4 -0.41959-0.25585c-0.5407-0.3297-0.75866-0.99229-0.68856-2.0932 0.0455-0.71449 0.11496-0.91738 0.41772-1.2201l0.36315-0.36312h31.188l0.36713 0.36713c0.32101 0.32101 0.37334 0.49022 0.41661 1.347 0.0569 1.1274-0.1684 1.7299-0.74481 1.9916-0.29358 0.13331 0.16319 0.17232 2.6646 0.22755l3.019 0.06667 0.39874 0.38233c0.21931 0.21028 0.46062 0.54028 0.53625 0.73333 0.0756 0.19305 0.53078 3.231 1.0114 6.751 0.48066 3.52 0.98619 6.8523 1.1234 7.4051 0.4709 1.8972-0.17775 3.5626-1.753 4.5007l-0.36666 0.21836v3.1208l0.45242 0.27961c0.89512 0.55322 1.5476 1.7626 1.5476 2.8685 0 2.5463-2.712 4.296-5 3.2259zm-32.6-35.001c0-0.82002 0.38019-2.7803 0.7519-3.8769 1.0956-3.2321 3.594-6.0477 6.7814-7.6426 0.97888-0.48978 2.6882-0.99788 3.9904-1.1862l1.1429-0.16525v-0.70355c0-0.60708-0.0466-0.73411-0.34014-0.92642-1.1569-0.75803-0.8869-2.6487 0.44449-3.1125 0.4946-0.1723 0.63005-0.1723 1.1246 0 1.3314 0.4638 1.6014 2.3545 0.4445 3.1125-0.29351 0.19231-0.34015 0.31934-0.34015 0.92642v0.70355l1.1429 0.16525c5.8412 0.84455 10.302 5.1851 11.318 11.013 0.11288 0.6473 0.20524 1.409 0.20524 1.6928v0.51587h-26.667z" stroke-width=".13333"/>
</svg>
