<svg width="512" height="512" version="1.1" viewBox="0 0 512 512" xmlns="http://www.w3.org/2000/svg">
  <path d="m281.71 509.96c-13.003-4.6044-22.323-12.809-28.322-24.933-3.2493-6.5662-3.6391-8.4015-3.6148-17.023 0.0383-13.538 2.64-18.111 20.262-35.605 15.21-15.1 21.283-24.619 22.816-35.763 1.3432-9.7662-4.1418-24.062-13.295-34.65l-3.8156-4.414-10.159 2.0158c-14.175 2.8128-31.883 1.9438-43.639-2.1415l-8.5113-2.9579-2.656 3.1282c-1.4608 1.7205-4.5249 6.9582-6.8091 11.639-3.7322 7.649-4.153 9.4372-4.153 17.649 0 8.3339 0.38922 9.9252 4.425 18.091 3.6726 7.4311 6.9009 11.488 18.987 23.863 9.7341 9.9664 15.339 16.667 16.907 20.211 8.6886 19.642-1.5132 42.875-23.625 53.804-8.1569 4.0313-9.2283 4.2661-19.472 4.2661-9.8087 0-11.542-0.33705-18.216-3.5448-18.098-8.697-46.346-40.659-59.052-66.815-2.4255-4.9933-5.807-14.186-7.5144-20.427-2.6428-9.6615-3.0937-13.457-3.0333-25.534 0.18325-36.633 14.166-69.259 42.527-99.227l10.116-10.689-0.31721-14.763-0.31722-14.763-13.618 10.283c-26.887 20.303-32.574 22.774-46.926 20.396-20.564-3.4076-36.297-19.529-38.411-39.359-0.73504-6.8944 1.9779-18.355 5.949-25.131 8.9063-15.197 36.509-33.884 77.044-52.158 22.916-10.331 44.414-21.055 48.121-24.005l2.6519-2.1106-6.4445-6.7072c-13.546-14.098-20.841-30.999-21.775-50.444-0.74433-15.506 1.3701-25.63 8.2722-39.61 9.1437-18.52 24.854-31.988 46.203-39.609 7.2244-2.5788 9.9153-2.9132 23.48-2.9173 13.574-0.0041 16.355 0.3396 24.399 3.0194 43.664 14.544 66.008 61.86 49.269 104.33-3.1592 8.015-11.052 19.775-17.488 26.057l-5.4383 5.3078 3.8515 2.3524c2.1183 1.2938 13.81 6.8056 25.981 12.248 57.768 25.833 96.149 48.261 110.94 64.831 8.8045 9.861 13.536 22.913 12.377 34.142-0.9039 8.7579-7.4223 21.455-13.977 27.224-13.164 11.588-31.403 15.313-45.267 9.2447-2.5197-1.1028-13.499-8.6336-24.399-16.735-27.988-20.803-35.138-25.723-35.138-24.183 0 0.74134 0.5529 10.106 1.2287 20.811l1.2287 19.463 5.3755 5.6742c14.78 15.601 27.781 33.619 33.627 46.601 9.737 21.623 13.101 39.371 10.832 57.137-4.8262 37.774-20.117 67.142-49.773 95.593-14.771 14.171-22.525 18.24-35.821 18.796-7.1924 0.30129-10.729-0.13533-15.874-1.957zm24.967-15.219c10.253-4.7738 29.899-24.621 40.523-40.939 15.566-23.908 23.444-52.55 20.924-76.072-1.0674-9.9627-6.1318-25.223-11.824-35.629-8.0535-14.723-28.713-40.7-31.164-39.185-1.1277 0.69709-35.273 41.116-36.672 43.41-0.57672 0.94562 1.1712 4.145 4.9117 8.9902 10.625 13.763 15.644 27.875 14.452 40.636-1.5413 16.505-8.8982 29.104-28.184 48.265-10.108 10.042-13.554 14.234-14.615 17.776-3.8853 12.968 5.6511 28.147 21.024 33.463 7.8213 2.7046 13.723 2.5005 20.625-0.71325zm-97.04-5.1279c10.789-5.0713 18.435-15.75 18.35-25.627-0.0698-8.092-2.4375-11.819-16.14-25.408-13.327-13.215-21.135-24.536-25.114-36.412-2.0354-6.0749-2.3813-9.1787-1.9603-17.59 0.58975-11.781 3.1376-19.421 10.038-30.097 2.513-3.888 4.3246-7.7062 4.0259-8.4847-0.52131-1.3584-30.701-44.386-32.513-46.354-1.5764-1.7122-14.993 14.181-23.698 28.073-16.305 26.019-22.57 58.649-16.093 83.823 5.9373 23.079 24.324 50.54 46.991 70.183 4.8897 4.2372 11.018 8.489 13.618 9.4483 6.1743 2.2779 15.75 1.616 22.496-1.5548zm207.58-215.93c15.315-6.5793 21.466-22.826 14.235-37.605-3.9875-8.1501-10.888-14.282-31.34-27.845-18.581-12.323-38.801-22.988-68.658-36.214-26.175-11.595-39.836-18.32-46.434-22.86-11.693-8.0446-24.512-11.877-39.342-11.76-14.77 0.11575-28.796 5.0268-41.031 14.366-7.3483 5.609-19.119 11.869-39.447 20.979-37.14 16.644-45.837 21.282-65.36 34.858-16.445 11.436-22.396 20.018-22.387 32.28 0.01103 14.519 13.495 27.208 29.112 27.394 7.5672 0.0902 10.63-1.44 25.157-12.571 13.378-10.251 43.37-31.845 44.229-31.845 0.32862 0 0.59749 4.8515 0.59749 10.781v10.781h139.51l0.31968-12.966 0.31977-12.966 21.562 14.989c11.859 8.2439 28.712 20.377 37.45 26.963 8.7383 6.5859 17.165 12.658 18.725 13.494 6.3476 3.4008 14.484 3.3105 22.779-0.25279zm-197.1-146.96c12.411-4.4253 25.515-5.6386 38.279-3.5443 5.8526 0.96025 13.954 3.0874 18.002 4.727l7.361 2.981 8.0376-8.204c12.229-12.482 18.662-27.697 18.662-44.134 0-10.751-1.7857-18.235-6.915-28.98-10.355-21.692-32.628-35.523-57.204-35.523-18.035 0-32.738 6.064-45.396 18.722-12.812 12.812-18.684 26.896-18.709 44.874-0.0161 11.814 2.1184 20.457 7.6712 31.058 5.0129 9.5705 17.624 22.822 20.546 21.589 1.0134-0.42726 5.3623-2.0324 9.6641-3.5662z" stroke-width="1.1348"/>
</svg>
