<svg version="1.1" xmlns="http://www.w3.org/2000/svg" width="917" height="1024" viewBox="0 0 917 1024">
	<path d="M678.843 1019.918c-37.404-10.399-64.142-36.014-77.388-74.143-3.225-9.277-4.334-19.191-4.253-38.029 0 0 0.135-25.482 0.135-25.482h-257.032s-17.176 51.533-17.176 51.533c-19.534 58.601-23.26 64.615-40.042 64.615-5.382 0-12.785-1.552-16.455-3.454-6.672-3.454-14.425-16.236-14.425-23.794 0-2.204 17.111-55.778 38.024-119.052 20.913-63.272 37.713-115.341 37.333-115.711-0.403-0.336-9.118-5.644-19.418-11.725-31.546-18.626-53.508-36.091-83.2-66.165-44.815-45.394-76.828-97.706-96.171-157.172l-7.866-24.173s-52.683-0.712-52.683-0.712c-52.102-0.705-52.751-0.779-58.822-6.484-12.552-11.802-12.541-33.554 0.023-45.368 5.987-5.631 7.089-5.765 53.339-6.477l47.224-0.732s-1.552-34.233-1.552-34.233-1.559-34.232-1.559-34.232h809.706l-1.337 42.074c-2.070 65.209-14.148 112.279-43.293 168.691-35.589 68.879-87.418 124.487-152.47 163.581-10.708 6.437-20.752 12.137-22.321 12.67-4.307 1.465 16.285 62.767 21.569 64.21 2.211 0.605 8.29 1.794 13.505 2.647s17.22 5.342 26.678 9.976c42.275 20.712 67.439 69.090 60.182 115.704-10.366 66.585-75.876 109.309-140.194 91.432l-0.060 0.004zM726.464 964.348c13.601-4.865 25.163-15.166 31.671-28.223 11.086-22.247 6.356-46.266-12.61-64.005-29.745-27.823-75.642-16.438-89.248 22.141-15.253 43.232 27.076 85.498 70.19 70.087l-0.004 0.001zM647.64 818.053l11.78-7.323-7.89-23.431c-4.341-12.887-8.499-24.414-9.241-25.617-0.773-1.25-7.705-0.202-16.177 2.493-43.604 13.762-112.121 19.757-159.757 13.977-20.3-2.466-70.325-13.432-81.779-17.931-3.225-1.27-5.631 3.696-13.979 28.848-5.543 16.709-10.57 31.714-11.169 33.343-0.867 2.352 27.661 2.963 137.67 2.963h138.766l11.777-7.322zM584.237 716.696c70.245-16.297 123.353-45.497 172.924-95.068 57.46-57.463 89.845-123.293 100.624-204.543l1.492-11.259h-692.438v7.331c0 11.109 9.037 53.232 15.718 73.261 13.802 41.38 36.433 80.819 67.384 117.419 37.898 44.82 91.583 80.978 150.376 101.289 20.353 7.030 32.053 9.855 69.926 16.883 3.259 0.605 25.659 0.719 49.777 0.269 33.019-0.605 48.882-2.009 64.211-5.563l0.006-0.019zM632.072 639.286c-9.934-4.246-17.234-16.352-17.138-28.428 0.135-13.089 3.46-17.975 21.24-30.932 37.99-27.68 63.866-55.803 89.316-97.071 18.315-29.697 23.085-34.378 34.979-34.335 12.433 0.045 20.029 4.018 26.744 13.98 7.505 11.136 6.782 19.823-3.158 37.936-27.213 49.58-75.974 102.952-120.277 131.638-15.19 9.836-21.96 11.376-31.706 7.213l0.001-0.001zM320.087 280.187c-10.084-8.854-11.303-14.95-7.008-35.057 4.932-23.101 2.278-40.694-12.949-85.831-12.505-37.057-13.251-40.605-14.231-67.556-0.9-24.733-0.336-30.443 4.146-43.761 6.504-19.231 14.995-33.836 24.138-41.53 13.14-11.056 38.164-6.591 45.8 8.176 5.281 10.211 4.542 14.958-5.268 33.914-8.31 16.060-8.862 18.454-8.863 38.46 0 18.927 1.115 24.541 9.91 49.777 15.598 44.772 18.065 56.385 18.131 85.332 0.135 46.219-9.821 65.185-34.121 65.185-9.496 0-13.050-1.283-19.69-7.115 0 0 0.004 0.006 0.004 0.006zM479.67 281.967c-10.93-7.406-13.093-15.511-9.384-35.169 4.636-24.572 1.915-45.783-10.611-82.754-5.967-17.6-12.565-40.487-14.671-50.859-6.868-33.827-1.041-66.956 16.63-94.584 10.039-15.693 14.053-18.114 30.028-18.114 10.722 0 13.23 0.981 20.164 7.919 12.316 12.316 12.42 17.037 0.894 40.511-14.276 29.078-13.977 41.661 2.177 91.538 14.95 46.17 17.936 63.055 16.284 92.067-1.586 27.858-4.824 39.333-13.567 48.074-8.818 8.818-26.034 9.441-37.944 1.371h0.001zM619.018 283.587c-3.568-1.935-8.181-6.794-10.249-10.793-3.245-6.269-3.366-9.484-0.894-23.327 4.878-27.295 2.096-48.854-11.548-89.52-14.66-43.689-18.614-68.731-14.767-93.526 3.118-20.107 15.61-47.902 26.352-58.645 16.778-16.778 51.542-4.347 51.879 18.555 0.045 3.131-3.85 12.734-8.664 21.333-7.591 13.567-8.879 18.144-9.736 34.598-0.907 17.487-0.135 21.546 9.85 52.148 15.299 46.848 18.607 62.85 18.375 88.892-0.403 44.643-10.409 64.095-32.889 63.905-6.175-0.052-14.142-1.68-17.711-3.615 0 0 0.002-0.007 0.002-0.007z"></path>
</svg>
