<svg version="1.1" xmlns="http://www.w3.org/2000/svg" width="1078" height="1024" viewBox="0 0 1078 1024">
	<path d="M16.319 1019.484c-10.536-5.196-16.138-14.092-16.302-25.887-0.142-12.15 3.745-19.367 13.823-25.514 6.577-4.008 12.776-4.9 34.441-4.948 49.118-0.107 78.083-6.95 98.609-23.286 11.281-8.979 15.159-10.646 24.767-10.646 9.441 0 13.366 1.618 22.925 9.451 20.3 16.634 53.532 24.59 102.055 24.434 46.282-0.15 79.168-8.503 97.766-24.834 4.601-4.041 10.806-8.122 13.786-9.067 9.335-2.963 22.52 1.22 32.626 10.35 17.206 15.545 49.497 23.587 94.854 23.62 49.396 0.040 82.099-7.705 101.689-24.070 17.498-14.619 31.503-14.654 47.592-0.121 19.614 17.72 59.047 25.864 113.616 23.463 44.972-1.978 68.014-8.573 86.42-24.735 7.978-7.004 11.695-8.493 21.207-8.493 9.746 0 13.574 1.624 24.694 10.476 21.084 16.783 48.724 23.344 98.824 23.456 28.512 0.064 39.158 3.669 45.427 15.384 4.28 7.998 3.417 23.521-1.748 31.399-6.884 10.505-17.722 13.659-46.748 13.603-42.504-0.080-78.586-6.785-104.704-19.45l-14.278-6.923-18.878 8.082c-32.725 14.010-50.649 16.846-105.691 16.728-45.157-0.1-51.042-0.642-73.768-6.829-13.583-3.698-29.928-9.383-36.323-12.632l-11.626-5.909-15.264 7.103c-56.624 26.35-162.861 26.36-215.575 0.016-14.083-7.037-14.166-7.046-22.671-2.473-53.168 28.59-164.118 29.703-222.148 2.228-14.655-6.939-14.887-6.964-22.648-2.447-31.293 18.209-123.697 29.835-146.756 18.464zM16.818 878.926c-11.629-6.277-16.239-13.783-16.301-26.541-0.142-22.964 11.312-30.107 48.261-30.178 49.545-0.093 77.298-6.714 98.315-23.447 11.066-8.809 14.973-10.476 24.552-10.476 9.431 0 13.366 1.618 22.866 9.403 20.184 16.539 53.184 24.621 99.962 24.481 48.435-0.143 81.025-8.244 99.914-24.834 15.561-13.664 29.039-13.3 46.027 1.24 18.469 15.81 49.944 23.63 95.236 23.664 49.396 0.037 82.099-7.705 101.689-24.070 17.498-14.619 31.503-14.654 47.592-0.121 19.614 17.72 59.047 25.864 113.616 23.464 44.972-1.978 68.014-8.573 86.42-24.735 7.978-7.004 11.695-8.493 21.207-8.493 9.746 0 13.574 1.624 24.694 10.476 20.838 16.588 48.815 23.349 97.018 23.447 27.571 0.056 39.301 3.552 45.945 13.691 5.814 8.87 5.222 24.926-1.241 34.010-8.093 11.365-18.842 13.607-57.793 12.057-39.295-1.564-63.251-6.147-89.722-17.168l-18.687-7.78-18.687 7.78c-32.789 13.65-50.045 16.332-104.617 16.264-44.674-0.056-51.233-0.642-73.202-6.537-13.272-3.562-29.813-9.356-36.758-12.875-10.836-5.491-13.305-5.929-17.392-3.089-7.438 5.169-38.192 15.494-57.61 19.342-11.28 2.235-33.907 3.443-62.912 3.359-50.577-0.15-77.927-4.949-104.434-18.337l-13.841-6.991-15.098 7.010c-31.934 14.825-50.514 18.030-105.691 18.229-44.996 0.164-52.729-0.442-72.978-5.707-12.456-3.239-29.007-8.902-36.78-12.585l-14.131-6.696-15.578 7.014c-26.453 11.91-53.005 17.11-94.567 18.52-31.703 1.076-38.957 0.628-45.297-2.794zM16.818 737.811c-11.541-5.939-16.238-13.532-16.301-26.351-0.142-22.691 11.409-30.094 47.003-30.206 49.778-0.157 78.633-6.913 99.087-23.2 11.444-9.112 15.159-10.695 25.096-10.695 9.777 0 13.548 1.544 23.316 9.548 20.341 16.667 53.013 24.493 101.609 24.336 46.282-0.15 79.168-8.503 97.766-24.834 15.742-13.821 29.19-13.282 47.573 1.909 18.414 15.216 50.387 22.96 94.949 22.994 48.103 0.037 81.017-7.851 100.432-24.070 17.498-14.619 31.503-14.654 47.592-0.121 19.614 17.72 59.047 25.864 113.616 23.463 44.972-1.978 68.014-8.573 86.42-24.735 7.978-7.004 11.695-8.493 21.207-8.493 9.746 0 13.574 1.624 24.694 10.476 21.084 16.783 48.724 23.344 98.824 23.456 28.512 0.064 39.158 3.669 45.427 15.384 4.565 8.532 3.353 24.047-2.532 32.308-8.093 11.365-18.842 13.607-57.793 12.057-39.295-1.564-63.251-6.147-89.722-17.168l-18.687-7.78-18.687 7.78c-32.916 13.703-50.038 16.359-104.617 16.234-44.455-0.1-51.341-0.718-73.202-6.548-13.272-3.539-29.813-9.314-36.758-12.834-10.836-5.49-13.305-5.929-17.392-3.089-7.438 5.169-38.192 15.494-57.61 19.342-11.279 2.235-33.907 3.443-62.912 3.359-50.577-0.15-77.927-4.949-104.434-18.337l-13.841-6.991-15.098 7.010c-31.933 14.825-50.514 18.030-105.691 18.229-44.996 0.164-52.729-0.442-72.978-5.707-12.456-3.239-29.311-9.048-37.455-12.908-14.657-6.949-14.886-6.974-22.648-2.457-22.207 12.922-70.114 22.534-112.271 22.525-18.874-0.005-28.58-1.115-33.973-3.891zM816.642 493.957c-13.483-5.865-17.021-14.249-18.434-43.686l-1.256-26.201-18.88-5.436c-10.384-2.99-26.613-9.761-36.064-15.046l-17.184-9.61-19.639 19.111c-18.83 18.325-20.127 19.111-31.503 19.111-10.138 0-13.111-1.245-20.421-8.556s-8.557-10.283-8.557-20.421c0-11.377 0.785-12.673 19.111-31.503l19.112-19.638-9.61-17.184c-5.286-9.451-12.056-25.68-15.046-36.064l-5.436-18.88-26.533-1.258c-30.666-1.455-38.44-5.257-44.196-21.618-3.003-8.531-2.946-11.066 0.428-19.079 6.192-14.753 14.036-18.255 44.109-19.698l26.201-1.258 5.436-18.88c2.989-10.384 9.76-26.613 15.046-36.065l9.61-17.184-19.112-19.638c-18.324-18.83-19.111-20.127-19.111-31.503 0-10.138 1.248-13.11 8.557-20.421s10.283-8.556 20.421-8.556c11.376 0 12.673 0.786 31.503 19.111l19.639 19.111 17.184-9.61c9.451-5.285 25.68-12.056 36.064-15.046l18.88-5.436 1.255-26.533c1.455-30.665 5.257-38.439 21.617-44.196 8.531-3.002 11.066-2.946 19.080 0.421 14.752 6.195 18.254 14.037 19.698 44.109l1.256 26.202 18.881 5.436c10.384 2.99 26.613 9.761 36.064 15.046l17.184 9.61 19.638-19.111c18.83-18.325 20.126-19.111 31.503-19.111 10.138 0 13.111 1.245 20.421 8.556s8.556 10.283 8.556 20.421c0 11.377-0.785 12.673-19.111 31.503l-19.112 19.638 9.61 17.184c5.286 9.451 12.056 25.68 15.046 36.065l5.436 18.88 26.201 1.258c30.072 1.444 37.914 4.946 44.109 19.698 3.367 8.013 3.424 10.548 0.428 19.079-5.757 16.361-13.531 20.163-44.196 21.618l-26.533 1.258-5.436 18.88c-2.989 10.384-9.761 26.613-15.046 36.064l-9.61 17.184 19.112 19.638c18.324 18.83 19.111 20.127 19.111 31.503 0 10.138-1.248 13.11-8.557 20.421s-10.283 8.556-20.421 8.556c-11.377 0-12.673-0.786-31.503-19.111l-19.639-19.111-17.184 9.61c-9.451 5.286-25.68 12.056-36.064 15.046l-18.881 5.436-1.255 26.201c-1.427 29.748-4.979 37.94-18.988 43.793-10.382 4.338-12.779 4.327-22.973-0.107zM864.376 360.17c18.339-5.989 32.51-14.783 46.714-28.986 23.462-23.462 34.031-49.14 34.031-82.688 0-33.544-10.568-59.222-34.031-82.688-23.463-23.462-49.141-34.031-82.688-34.031-33.544 0-59.221 10.568-82.688 34.031-23.462 23.462-34.031 49.14-34.031 82.688 0 33.544 10.568 59.221 34.031 82.688 18.186 18.186 41.736 30.248 66.327 33.972 12.203 1.848 39.314-0.735 52.328-4.985zM231.662 428.123c-7.201-6.396-19.412-15.677-27.136-20.626-15.416-9.877-58.964-29.776-80.73-36.89-21.609-7.063-32.283-13.317-36.437-21.348-12.152-23.499 7.26-48.59 33.1-42.785 27.692 6.222 96.127 36.516 121.374 53.73l13.605 9.275 13.132-8.719c32.25-21.413 108.508-54.125 128.177-54.98 25.958-1.13 40.574 28.066 24.001 47.945-2.932 3.515-16.616 10.26-34.518 17.013-43.466 16.394-82.879 36.679-98.864 50.886-17.19 15.275-22.496 18.128-33.724 18.128-7.005 0-11.666-2.467-21.982-11.628zM151.138 246.938c-7.2-6.396-19.412-15.677-27.136-20.626-15.416-9.877-58.964-29.776-80.73-36.89-21.609-7.063-32.283-13.317-36.437-21.348-8.528-16.491-1.905-34.7 15.217-41.856 6.884-2.876 10.268-2.842 22.038 0.221 31.804 8.284 90.501 34.658 117.181 52.648l13.563 9.147 15.376-9.985c34.222-22.224 106.153-52.793 126.283-53.669 25.697-1.118 40.208 28.198 23.736 47.957-2.932 3.516-16.616 10.26-34.518 17.013-43.466 16.394-82.879 36.679-98.864 50.886-17.19 15.275-22.496 18.127-33.723 18.127-7.005 0-11.667-2.467-21.982-11.628z"></path>
</svg>
