<svg xmlns="http://www.w3.org/2000/svg" xmlns:xlink="http://www.w3.org/1999/xlink" version="1.1" id="Layer_1" x="0px" y="0px" viewBox="0 0 511.999 511.999" style="enable-background:new 0 0 511.999 511.999;" xml:space="preserve">
<g>
	<g>
		<path d="M469.897,491.714L381.834,386.76c-0.037-0.046-0.068-0.094-0.106-0.14c-0.038-0.044-0.08-0.084-0.119-0.128L343.1,340.596    c-0.043-0.054-0.08-0.111-0.125-0.166c-0.044-0.053-0.095-0.099-0.14-0.151l-38.534-45.925c-0.03-0.036-0.053-0.074-0.083-0.11    c-0.03-0.036-0.063-0.065-0.094-0.1l-77.367-92.206c-0.018-0.022-0.032-0.046-0.051-0.067c-0.019-0.022-0.038-0.039-0.057-0.062    l-77.435-92.287c-0.006-0.007-0.012-0.016-0.019-0.025c-0.006-0.007-0.014-0.015-0.021-0.022L61.02,4.411    c-3.337-3.978-8.807-5.44-13.682-3.668c-4.878,1.776-8.125,6.413-8.125,11.604V499.65c0,6.82,5.53,12.349,12.349,12.349h408.877    c4.8,0,9.164-2.781,11.193-7.129C473.657,500.521,472.982,495.391,469.897,491.714z M63.91,487.298V46.278l58.43,69.638    l-20.573,17.262c-5.225,4.384-5.906,12.172-1.521,17.397c2.443,2.911,5.942,4.411,9.465,4.411c2.802,0,5.619-0.948,7.932-2.89    l20.573-17.262l22.881,27.269l-6.973,5.852c-5.224,4.384-5.905,12.172-1.521,17.397c2.443,2.911,5.942,4.411,9.465,4.411    c2.802,0,5.619-0.948,7.932-2.89l6.973-5.851l22.88,27.268l-20.572,17.261c-5.223,4.384-5.906,12.172-1.521,17.397    c2.443,2.911,5.942,4.411,9.465,4.411c2.802,0,5.619-0.948,7.932-2.89l20.57-17.261l22.88,27.268l-6.971,5.85    c-5.224,4.384-5.905,12.172-1.521,17.397c2.443,2.911,5.942,4.411,9.465,4.411c2.802,0,5.619-0.947,7.932-2.89l6.971-5.85    l22.881,27.268l-20.569,17.26c-5.223,4.384-5.906,12.172-1.521,17.397c2.443,2.911,5.942,4.411,9.465,4.411    c2.802,0,5.619-0.948,7.932-2.89l20.568-17.26l22.881,27.268l-6.97,5.848c-5.223,4.384-5.906,12.172-1.521,17.397    c2.443,2.911,5.942,4.411,9.465,4.411c2.802,0,5.619-0.948,7.932-2.89l6.97-5.848l22.881,27.269l-20.567,17.257    c-5.224,4.384-5.906,12.173-1.521,17.397c2.443,2.911,5.941,4.411,9.465,4.411c2.801,0,5.619-0.948,7.932-2.89l20.565-17.257    l63.216,75.343H63.91z" style="fill: rgb(0, 0, 0);"></path>
	</g>
</g>
<g>
	<g>
		<path d="M274.226,400.469l-121.959-145.35c-3.337-3.977-8.806-5.443-13.682-3.666c-4.879,1.776-8.125,6.411-8.125,11.603v145.349    c0,6.82,5.53,12.349,12.349,12.349h121.959c4.8,0,9.164-2.781,11.192-7.129C277.986,409.275,277.31,404.145,274.226,400.469z     M155.155,396.057v-99.072l83.128,99.072H155.155z" style="fill: rgb(0, 0, 0);"></path>
	</g>
</g>
<g>
</g>
<g>
</g>
<g>
</g>
<g>
</g>
<g>
</g>
<g>
</g>
<g>
</g>
<g>
</g>
<g>
</g>
<g>
</g>
<g>
</g>
<g>
</g>
<g>
</g>
<g>
</g>
<g>
</g>
</svg>
