<?xml version="1.0" standalone="no"?> 
<!DOCTYPE svg PUBLIC "-//W3C//DTD SVG 1.1//EN" "http://www.w3.org/Graphics/SVG/1.1/DTD/svg11.dtd" >
<svg xmlns="http://www.w3.org/2000/svg">
<defs>
  <font id="awebooking-webfont" horiz-adv-x="1078">
    <font-face font-family="awebooking-webfont"
      units-per-em="1024" ascent="1024"
      descent="0" />
    <missing-glyph horiz-adv-x="0" />
    <glyph glyph-name="add-circle-outline"
      unicode="&#xF101;"
      horiz-adv-x="1024" d=" M693 544H544V693C544 710.6 529.6 725 512 725C494.4 725 480 710.6 480 693V544H331C313.4 544 299 532 299 512S314 480 331 480S480 480 480 480S480 350 480 331S494 299 512 299S544 313.4 544 331V480H693C710.6 480 725 494.4 725 512C725 529.6 710.6 544 693 544z M512 872C608.2 872 698.6 834.6 766.6 766.6S872 608.2 872 512S834.6 325.4 766.6 257.4S608.2 152 512 152C415.8 152 325.4 189.4 257.4 257.4C189.4 325.4 152 415.8 152 512S189.4 698.6 257.4 766.6C325.4 834.6 415.8 872 512 872M512 928C282.2 928 96 741.8 96 512S282.2 96 512 96C741.8 96 928 282.2000000000001 928 512S741.8 928 512 928L512 928z" />
    <glyph glyph-name="add-circle"
      unicode="&#xF102;"
      horiz-adv-x="1024" d=" M512 928C282.2 928 96 741.8 96 512S282.2 96 512 96C741.8 96 928 282.2000000000001 928 512S741.8 928 512 928zM693 480H544V331C544 313.4 529.6 299 512 299C503.2 299 495.2 302.6 489.4 308.4C483.6 314.2 480 322.2 480 331V480H331C322.2 480 314.2 483.6 308.4 489.4C302.6 495.1999999999999 299 503.1999999999999 299 512C299 529.6 313.4 544 331 544H480V693C480 710.6 494.4 725 512 725C529.6 725 544 710.6 544 693V544H693C710.6 544 725 529.6 725 512C725 494.4 710.6 480 693 480z" />
    <glyph glyph-name="add"
      unicode="&#xF103;"
      horiz-adv-x="1024" d=" M737 544H544V737C544 754.6 529.6 769 512 769C494.4 769 480 754.6 480 737V544H287C269.4 544 255 529.6 255 512C255 503.2 258.6 495.2 264.4 489.4C270.2 483.6 278.2 480 287 480H480V287C480 278.2000000000001 483.6 270.2000000000001 489.4 264.4C495.2 258.6 503.2 255 512 255C529.6 255 544 269.4 544 287V480H737C754.6 480 769 494.4 769 512C769 529.6 754.6 544 737 544z" />
    <glyph glyph-name="airplane"
      unicode="&#xF104;"
      horiz-adv-x="1024" d=" M815.4 576C808.6 576 785.8 575.8 779.4 575.4L649.5999999999999 572C648.1999999999999 572 646.8 572.6 646.1999999999999 573.8L451.6 865.2C445.8 874.4 435.4000000000001 880 424.6 880H377.2000000000001C366.0000000000001 880 362.2000000000001 868.8 366.2000000000001 858.4L466.4 572.8C467.4 570.1999999999999 465.6 567.4 462.8 567.4L218 563.8C212.8 563.5999999999999 208 566 204.8 570L130.8 660C124.8 667.8 115.4 672.1999999999999 105.6 672.1999999999999H72C66.4 672.1999999999999 62.6 666.8 64.4 661.5999999999999L104.2 524.1999999999999C107.2 516.5999999999999 107.2 507.9999999999999 104.2 500.4L64.4 363C62.6 357.8 66.4 352.4 72 352.4H105.4C115.2 352.4 124.6 357 130.6 364.6L206 456C209.2 460 214.2 462.4 219.2 462.2L462.6 456.8000000000001C465.4 456.6 467.2 454.0000000000001 466.2 451.4000000000001L366 165.6C362 155.2000000000001 365.8 144 377 144H424.4C435.4 144 445.6 149.6 451.4 158.8L646.2 450C647 451.2 648.2 451.8 649.6 451.8L779.4000000000001 448.4C786.0000000000001 448 808.6000000000001 447.8 815.4000000000001 447.8C904.0000000000002 447.8 960.0000000000002 476.4 960.0000000000002 511.8S904.2 576 815.4 576z" />
    <glyph glyph-name="alarm"
      unicode="&#xF105;"
      horiz-adv-x="1024" d=" M762.4 895.8C759.8 896 757.1999999999999 896 754.6 896L754.2 896C721.8000000000001 896 690.2 885.2 665 865.8C661.8 863.2 659.8 859.4 659.6 855.4C659.4 851.4 661.2 847.4 664.2 844.6L843.8000000000001 683.6C846.4000000000001 681.4000000000001 849.6 680 853.0000000000001 680C853.2000000000002 680 853.6000000000001 680 853.8000000000001 680C857.6 680.2 861.0000000000001 682 863.4000000000001 684.8C881.8 706 896 722.4 896 758C896.2 830.8 837.8 891.6 762.4 895.8z M128 758C128 722.4 142.2 706 160.6 684.8C163 682 166.4 680.2 170.2 680C170.4 680 170.8 680 171 680C174.4 680 177.6 681.2 180.2 683.6L360 844.6C363 847.4 364.8 851.2 364.6 855.4C364.4000000000001 859.4 362.6 863.2 359.2000000000001 865.8C334 885.2 302.4 896 270 896L269.6 896C267 896 264.4000000000001 896 261.8 895.8C186.4 891.6 127.8 830.8 128 758z M780 252C832.4 313.4 864 393 864 480C864 674.4 706.4 832 512 832S160 674.4 160 480C160 393 191.6 313.4 244 252L174.6 181C162.2 168.4 162.6 150 175.2 137.8C181.4 131.8 190 128.1999999999999 198 128.1999999999999C206.4 128.1999999999999 214.2 131.9999999999999 220.4 138.4L289.6 207.4C350.2000000000001 158 427.6 128.1999999999999 512 128.1999999999999S673.8 157.8 734.4 207.4L801.6 138.4C807.8000000000001 132 816.2 128.1999999999999 824.6 128.1999999999999C832.6 128.1999999999999 840.8000000000001 131.8 847 137.8C859.6 150.1999999999999 862 168.4 849.6 181L780 252zM540 476C540 460.6 527.4 448 512 448H348C332.6 448 320 460.6 320 476S332.6 504 348 504H484V708C484 723.4 496.6 736 512 736S540 723.4 540 708V476z" />
    <glyph glyph-name="alert"
      unicode="&#xF106;"
      horiz-adv-x="1024" d=" M512 928C282.2 928 96 741.8 96 512S282.2 96 512 96C741.8 96 928 282.2000000000001 928 512S741.8 928 512 928zM546.4 708.8L540.1999999999999 478.6C539.8 462.2 528.4 449 511.9999999999999 449H511.9999999999999C495.6 449 484.1999999999999 462.2 483.8 478.6L477.6 708.8C477.2 728 492.6 744 511.9999999999999 744H511.9999999999999C531.2 744 546.8 728.2 546.4 708.8zM512 316C490.6 316 473.8 332.2000000000001 473.8 352.8S490.6 389.5999999999999 512 389.5999999999999C533.4 389.5999999999999 550.2 373.3999999999999 550.2 352.8S533.4 316 512 316z" />
    <glyph glyph-name="arrow-back"
      unicode="&#xF107;"
      horiz-adv-x="1024" d=" M435.8 512L690 766C708.8 784.8 708.8 815.2 690 833.8C671.2 852.6 640.8 852.4 622 833.8L334 546C315.8 527.8 315.4 498.6 332.6 479.8L621.8 190C631.1999999999999 180.6 643.5999999999999 176 655.8 176C668 176 680.4 180.6 689.8 190C708.5999999999999 208.8 708.5999999999999 239.2000000000001 689.8 257.8L435.8 512z" />
    <glyph glyph-name="arrow-down"
      unicode="&#xF108;"
      horiz-adv-x="1024" d=" M512 435.8L766 690C784.8 708.8 815.2 708.8 833.8 690S852.4 640.8 833.8 622L546 334C527.8 315.8 498.6 315.4 479.8 332.6L190 621.8C180.6 631.2 176 643.6 176 655.8C176 668 180.6 680.4000000000001 190 689.8C208.8 708.6 239.2 708.6 257.8 689.8L512 435.8z" />
    <glyph glyph-name="arrow-dropdown-circle"
      unicode="&#xF109;"
      horiz-adv-x="1024" d=" M96 512C96 282.2000000000001 282.2 96 512 96S928 282.2000000000001 928 512C928 741.8 741.8 928 512 928S96 741.8 96 512zM674.2 598.8C689.2 613.8 713.8000000000001 613.8 728.8000000000001 598.8C736.4000000000001 591.2 740.0000000000001 581.4000000000001 740.0000000000001 571.6C740.0000000000001 561.8 736.2000000000002 551.8 728.6000000000001 544.2L540.0000000000001 356.2000000000001C524.8000000000001 342.4000000000001 501.4000000000001 342.8000000000001 486.8000000000001 357.4000000000001L295.4000000000001 548.2C280.4000000000001 563.2 280.2000000000001 587.6000000000001 295.4000000000001 602.8000000000002C310.4000000000001 617.8000000000002 334.8000000000001 618.0000000000001 350.0000000000001 602.8000000000002L512.2 439.0000000000001L674.2 598.8z" />
    <glyph glyph-name="arrow-dropdown"
      unicode="&#xF10A;"
      horiz-adv-x="1024" d=" M295.2 602.6C280.2 587.6 280.2 563 295.2 548L486.6 357.2000000000001C501.2 342.6 524.8000000000001 342.2000000000001 539.8000000000001 356L728.4000000000001 544C736.0000000000001 551.6 739.8000000000001 561.4 739.8000000000001 571.4C739.8000000000001 581.2 736.0000000000001 591.2 728.6 598.5999999999999C713.6 613.5999999999999 689.2 613.8 674 598.5999999999999L512 439L349.8 602.8C334.8 617.8 310.4 617.8 295.2 602.6z M96 512C96 282.2000000000001 282.2 96 512 96S928 282.2000000000001 928 512C928 741.8 741.8 928 512 928S96 741.8 96 512zM760.8 760.8C827.4 694.4 864 606 864 512C864 418 827.4 329.6 760.8 263.2000000000001C694.4 196.6 606 160 512 160C418 160 329.6 196.6 263.2 263.2000000000001C196.6 329.6 160 418 160 512C160 606 196.6 694.4 263.2 760.8C329.6 827.4 418 864 512 864S694.4 827.4 760.8 760.8z" />
    <glyph glyph-name="arrow-dropleft-circle"
      unicode="&#xF10B;"
      horiz-adv-x="1024" d=" M512 928C282.2 928 96 741.8 96 512S282.2 96 512 96C741.8 96 928 282.2000000000001 928 512S741.8 928 512 928zM598.8 349.8C613.8 334.8 613.8 310.2 598.8 295.2C591.1999999999999 287.5999999999999 581.4 283.9999999999999 571.5999999999999 283.9999999999999C561.8 283.9999999999999 551.8 287.7999999999999 544.1999999999999 295.3999999999999L356.2 483.9999999999999C342.3999999999999 499.1999999999999 342.8 522.5999999999999 357.3999999999999 537.1999999999998L548.1999999999999 728.5999999999999C563.1999999999999 743.5999999999999 587.5999999999999 743.8 602.8 728.5999999999999C617.8 713.5999999999999 618 689.1999999999999 602.8 673.9999999999999L439 512L598.8 349.8z" />
    <glyph glyph-name="arrow-dropleft"
      unicode="&#xF10C;"
      horiz-adv-x="1024" d=" M602.6 728.8C587.6 743.8 563 743.8 548 728.8L357.2 537.4C342.6 522.8 342.2 499.1999999999999 356 484.1999999999999L544 295.5999999999999C551.6 287.9999999999999 561.4 284.2 571.4 284.2C581.1999999999999 284.2 591.1999999999999 287.9999999999999 598.6 295.4C613.6 310.4 613.8000000000001 334.8 598.6 350L439 512L602.8 674.2C617.8 689.2 617.8 713.6 602.6 728.8z M512 928C282.2 928 96 741.8 96 512S282.2 96 512 96C741.8 96 928 282.2000000000001 928 512S741.8 928 512 928zM760.8 263.2000000000001C694.4 196.6 606 160 512 160C418 160 329.6 196.6 263.2 263.2000000000001C196.6 329.6 160 418 160 512C160 606 196.6 694.4 263.2 760.8C329.6 827.4 418 864 512 864C606 864 694.4 827.4 760.8 760.8C827.4 694.4 864 606 864 512S827.4 329.6 760.8 263.2000000000001z" />
    <glyph glyph-name="arrow-dropright-circle"
      unicode="&#xF10D;"
      horiz-adv-x="1024" d=" M96 512C96 282.2000000000001 282.2 96 512 96C741.8 96 928 282.2000000000001 928 512S741.8 928 512 928C282.2 928 96 741.8 96 512zM585 512L421.2 674.2C406.2 689.2 406.2 713.8 421.2 728.8C436.2 743.8 460.8 743.8 475.8 728.8L666.6 537.4C681.2 522.8 681.6 499.1999999999999 667.8000000000001 484.1999999999999L479.8000000000001 295.5999999999999C472.2 287.9999999999999 462.4000000000001 284.2 452.4000000000001 284.2C442.6000000000001 284.2 432.6000000000001 287.9999999999999 425.2000000000001 295.4C410.2000000000001 310.4 410.0000000000001 334.8 425.2000000000001 350L585 512z" />
    <glyph glyph-name="arrow-dropright"
      unicode="&#xF10E;"
      horiz-adv-x="1024" d=" M421.4 728.8C436.4 743.8 461 743.8 476 728.8L666.8 537.4C681.4 522.8 681.8 499.1999999999999 668 484.1999999999999L480 295.5999999999999C472.4 287.9999999999999 462.6 284.2 452.6 284.2C442.8 284.2 432.8 287.9999999999999 425.4000000000001 295.4C410.4000000000001 310.4 410.2000000000001 334.8 425.4000000000001 350L585.2 512.2L421.4000000000001 674.4C406.2 689.2 406.2 713.6 421.4 728.8z M96 512C96 282.2000000000001 282.2 96 512 96C741.8 96 928 282.2000000000001 928 512S741.8 928 512 928C282.2 928 96 741.8 96 512zM160 512C160 606 196.6 694.4 263.2 760.8C329.6 827.4 418 864 512 864C606 864 694.4 827.4 760.8 760.8C827.4 694.4 864 606 864 512C864 418 827.4 329.6 760.8 263.2000000000001C694.4 196.6 606 160 512 160C418 160 329.6 196.6 263.2 263.2000000000001C196.6 329.6 160 418 160 512z" />
    <glyph glyph-name="arrow-dropup-circle"
      unicode="&#xF10F;"
      horiz-adv-x="1024" d=" M512 96C741.8 96 928 282.2000000000001 928 512C928 741.8 741.8 928 512 928S96 741.8 96 512C96 282.2000000000001 282.2 96 512 96zM512 585L349.8 421.2000000000001C334.8 406.2000000000001 310.2 406.2000000000001 295.2 421.2000000000001C280.2 436.2000000000001 280.2 460.8000000000001 295.2 475.8000000000001L486.6 666.6000000000001C501.2 681.2 524.8000000000001 681.6000000000001 539.8000000000001 667.8000000000001L728.4000000000001 479.8000000000001C736.0000000000001 472.2 739.8000000000001 462.4000000000001 739.8000000000001 452.4000000000001C739.8000000000001 442.6000000000002 736.0000000000001 432.6000000000002 728.6 425.2000000000001C713.6 410.2000000000001 689.2 410 674 425.2000000000001L512 585z" />
    <glyph glyph-name="arrow-dropup"
      unicode="&#xF110;"
      horiz-adv-x="1024" d=" M295.2 421.4C280.2 436.4 280.2 461 295.2 476L486.6 666.8C501.2 681.4000000000001 524.8000000000001 681.8 539.8000000000001 668L728.4000000000001 480C736.0000000000001 472.4 739.8000000000001 462.6 739.8000000000001 452.6C739.8000000000001 442.8000000000001 736.0000000000001 432.8000000000001 728.6 425.4C713.6 410.4 689.2 410.2 674 425.4L512 585L349.8 421.2000000000001C334.8 406.2000000000001 310.4 406.2000000000001 295.2 421.4z M512 96C741.8 96 928 282.2000000000001 928 512C928 741.8 741.8 928 512 928S96 741.8 96 512C96 282.2000000000001 282.2 96 512 96zM512 160C418 160 329.6 196.6 263.2 263.2000000000001C196.6 329.6 160 418 160 512C160 606 196.6 694.4 263.2 760.8C329.6 827.4 418 864 512 864C606 864 694.4 827.4 760.8 760.8C827.4 694.4 864 606 864 512C864 418 827.4 329.6 760.8 263.2000000000001C694.4 196.6 606 160 512 160z" />
    <glyph glyph-name="arrow-forward"
      unicode="&#xF111;"
      horiz-adv-x="1024" d=" M588.2 512L334 766C315.2 784.8 315.2 815.2 334 833.8S383.2 852.4 402 833.8L690 546C708.2 527.8 708.6 498.6 691.4 479.8L402.2 190C392.8 180.6 380.4 176 368.2 176C356 176 343.6 180.6 334.2 190C315.4 208.8 315.4 239.2000000000001 334.2 257.8L588.2 512z" />
    <glyph glyph-name="arrow-up"
      unicode="&#xF112;"
      horiz-adv-x="1024" d=" M512 588.2L766 334C784.8 315.2000000000001 815.2 315.2000000000001 833.8 334C852.5999999999999 352.8 852.4 383.2000000000001 833.8 402L546 690C527.8 708.2 498.6 708.6 479.8 691.4L190 402.2000000000001C180.6 392.8000000000001 176 380.4000000000001 176 368.2000000000001C176 356 180.6 343.6 190 334.2000000000001C208.8 315.4000000000001 239.2 315.4000000000001 257.8 334.2000000000001L512 588.2z" />
    <glyph glyph-name="bath"
      unicode="&#xF113;"
      horiz-adv-x="1024" d=" M976 512H160V800C160 835.29 188.71 864 224 864C246.702 864 266.664 852.11 278.03 834.24C245.046 783.826 248.656 715.088 291.706 668.1700000000001C283.354 658.744 283.664 644.338 292.688 635.3140000000001L315.316 612.686C324.688 603.3140000000001 339.884 603.3140000000001 349.258 612.686L539.318 802.744C548.6899999999999 812.116 548.6899999999999 827.312 539.318 836.686L516.6899999999999 859.3140000000001C507.6659999999999 868.338 493.2599999999999 868.646 483.8339999999999 860.296C447.9359999999999 893.234 399.246 903.154 355.478 891.0260000000001C326.562 932.666 278.424 960 224 960C135.776 960 64 888.2239999999999 64 800V512H48C21.49 512 0 490.51 0 464V432C0 405.49 21.49 384 48 384H64V320C64 263.14 88.724 212.062 128 176.906V112C128 85.49 149.49 64 176 64H208C234.51 64 256 85.49 256 112V128H768V112C768 85.49 789.49 64 816 64H848C874.51 64 896 85.49 896 112V176.906C935.276 212.0619999999999 960 263.14 960 320V384H976C1002.51 384 1024 405.49 1024 432V464C1024 490.51 1002.51 512 976 512z" />
    <glyph glyph-name="bbq-facilities"
      unicode="&#xF114;"
      horiz-adv-x="917" d=" M678.843 4.082C641.439 14.481 614.701 40.096 601.4549999999999 78.225C598.2299999999999 87.5020000000001 597.121 97.4160000000001 597.2019999999999 116.254C597.2019999999999 116.254 597.3369999999999 141.736 597.3369999999999 141.736H340.3049999999999S323.1289999999999 90.203 323.1289999999999 90.203C303.5949999999999 31.602 299.8689999999999 25.588 283.0869999999999 25.588C277.7049999999999 25.588 270.3019999999999 27.14 266.6319999999999 29.0419999999999C259.9599999999999 32.4959999999999 252.2069999999999 45.2779999999999 252.2069999999999 52.8359999999999C252.2069999999999 55.0399999999999 269.3179999999999 108.6139999999999 290.2309999999999 171.8879999999999C311.1439999999999 235.16 327.9439999999999 287.229 327.5639999999999 287.599C327.1609999999999 287.935 318.4459999999999 293.243 308.1459999999999 299.324C276.5999999999999 317.95 254.6379999999999 335.415 224.9459999999999 365.4889999999999C180.1309999999999 410.8829999999999 148.1179999999999 463.1949999999999 128.7749999999999 522.661L120.9089999999999 546.834S68.2259999999999 547.5459999999999 68.2259999999999 547.5459999999999C16.1239999999999 548.251 15.4749999999999 548.3249999999999 9.4039999999999 554.03C-3.1480000000001 565.8319999999999 -3.1370000000001 587.584 9.4269999999999 599.3979999999999C15.4139999999999 605.0289999999999 16.5159999999999 605.1629999999999 62.7659999999999 605.8749999999999L109.9899999999998 606.607S108.4379999999998 640.8399999999999 108.4379999999998 640.8399999999999S106.8789999999998 675.0719999999999 106.8789999999998 675.0719999999999H916.5849999999998L915.2479999999998 632.9979999999998C913.1779999999998 567.7889999999999 901.0999999999998 520.7189999999998 871.9549999999998 464.3069999999999C836.3659999999998 395.4279999999999 784.5369999999998 339.82 719.4849999999998 300.7259999999999C708.7769999999998 294.2889999999999 698.7329999999998 288.589 697.1639999999998 288.056C692.8569999999997 286.5909999999999 713.4489999999997 225.2889999999999 718.7329999999997 223.8459999999999C720.9439999999997 223.2409999999999 727.0229999999997 222.0519999999999 732.2379999999997 221.1989999999999S749.4579999999997 215.8569999999999 758.9159999999997 211.2229999999999C801.1909999999997 190.5109999999999 826.3549999999997 142.1329999999998 819.0979999999997 95.5189999999999C808.7319999999997 28.9339999999999 743.2219999999998 -13.7900000000002 678.9039999999998 4.0869999999999L678.8439999999998 4.0829999999999zM726.464 59.652C740.065 64.5170000000001 751.6270000000001 74.8180000000001 758.1350000000001 87.875C769.2210000000001 110.122 764.4910000000001 134.141 745.5250000000001 151.88C715.7800000000001 179.703 669.883 168.318 656.277 129.739C641.024 86.5070000000001 683.3530000000001 44.241 726.4670000000001 59.652L726.4630000000001 59.6510000000001zM647.64 205.947L659.42 213.27L651.53 236.701C647.189 249.588 643.031 261.115 642.289 262.318C641.516 263.568 634.584 262.52 626.112 259.825C582.5079999999999 246.0629999999999 513.991 240.068 466.355 245.848C446.055 248.314 396.03 259.28 384.576 263.779C381.351 265.049 378.945 260.083 370.597 234.9310000000001C365.054 218.2220000000001 360.027 203.2170000000001 359.428 201.5880000000001C358.561 199.2360000000001 387.089 198.6250000000001 497.098 198.6250000000001H635.8639999999999L647.641 205.9470000000001zM584.237 307.304C654.482 323.601 707.5899999999999 352.801 757.161 402.372C814.621 459.8349999999999 847.006 525.665 857.785 606.915L859.2769999999999 618.174H166.839V610.843C166.839 599.7339999999999 175.876 557.611 182.5569999999999 537.582C196.3589999999999 496.202 218.9899999999999 456.763 249.9409999999999 420.163C287.839 375.343 341.5239999999999 339.1850000000001 400.3169999999999 318.874C420.6699999999999 311.8440000000001 432.3699999999999 309.019 470.2429999999999 301.991C473.5019999999999 301.386 495.9019999999999 301.272 520.0199999999999 301.722C553.0389999999999 302.327 568.9019999999998 303.731 584.2309999999999 307.285L584.2369999999999 307.304zM632.072 384.7140000000001C622.138 388.9600000000001 614.838 401.0660000000001 614.934 413.1420000000001C615.069 426.2310000000001 618.394 431.1170000000001 636.174 444.0740000000001C674.164 471.754 700.04 499.8770000000001 725.49 541.1450000000001C743.8050000000001 570.8420000000001 748.575 575.5230000000001 760.469 575.48C772.902 575.4350000000001 780.498 571.4620000000001 787.2130000000001 561.5C794.7180000000001 550.364 793.9950000000001 541.6770000000001 784.0550000000001 523.5640000000001C756.8420000000001 473.984 708.081 420.6120000000001 663.778 391.9260000000001C648.588 382.0900000000001 641.818 380.5500000000001 632.072 384.7130000000001L632.073 384.7140000000001zM320.087 743.813C310.003 752.6669999999999 308.784 758.7629999999999 313.079 778.87C318.011 801.971 315.3570000000001 819.5640000000001 300.13 864.701C287.625 901.758 286.879 905.306 285.899 932.257C284.999 956.99 285.563 962.7 290.045 976.018C296.5490000000001 995.249 305.04 1009.854 314.183 1017.548C327.323 1028.604 352.347 1024.1390000000001 359.983 1009.372C365.264 999.161 364.525 994.414 354.7150000000001 975.458C346.4050000000001 959.398 345.853 957.004 345.8520000000001 936.998C345.8520000000001 918.071 346.9670000000001 912.457 355.7620000000001 887.221C371.3600000000001 842.4490000000001 373.8270000000001 830.836 373.8930000000001 801.889C374.028 755.6700000000001 364.072 736.704 339.7720000000001 736.704C330.2760000000001 736.704 326.7220000000001 737.9870000000001 320.0820000000001 743.819C320.0820000000001 743.819 320.0860000000001 743.8130000000001 320.0860000000001 743.8130000000001zM479.67 742.033C468.74 749.4390000000001 466.577 757.5440000000001 470.286 777.202C474.922 801.774 472.201 822.985 459.675 859.956C453.708 877.556 447.11 900.443 445.004 910.815C438.136 944.642 443.963 977.771 461.634 1005.399C471.673 1021.092 475.687 1023.513 491.662 1023.513C502.384 1023.513 504.8920000000001 1022.532 511.826 1015.594C524.142 1003.278 524.246 998.557 512.72 975.083C498.444 946.005 498.7430000000001 933.422 514.897 883.5450000000001C529.8470000000001 837.375 532.8330000000001 820.49 531.181 791.4780000000001C529.595 763.62 526.3570000000001 752.145 517.614 743.404C508.796 734.586 491.58 733.963 479.67 742.033H479.671zM619.018 740.413C615.45 742.348 610.837 747.207 608.769 751.206C605.524 757.475 605.403 760.69 607.875 774.533C612.753 801.828 609.971 823.387 596.327 864.053C581.667 907.742 577.713 932.784 581.56 957.579C584.678 977.686 597.17 1005.481 607.9119999999999 1016.224C624.6899999999999 1033.002 659.454 1020.571 659.7909999999999 997.669C659.8359999999999 994.538 655.9409999999999 984.935 651.127 976.336C643.536 962.769 642.2479999999999 958.192 641.391 941.738C640.4839999999999 924.251 641.256 920.192 651.241 889.59C666.54 842.742 669.848 826.74 669.616 800.698C669.213 756.0550000000001 659.207 736.6030000000001 636.727 736.793C630.552 736.845 622.5849999999999 738.473 619.016 740.408C619.016 740.408 619.0179999999999 740.415 619.0179999999999 740.415z" />
    <glyph glyph-name="beach"
      unicode="&#xF115;"
      horiz-adv-x="1078" d=" M16.319 4.516C5.783 9.712 0.181 18.6079999999999 0.017 30.403C-0.125 42.553 3.762 49.77 13.84 55.917C20.417 59.9250000000001 26.616 60.817 48.281 60.865C97.399 60.972 126.364 67.8150000000001 146.89 84.1510000000001C158.171 93.1300000000001 162.049 94.797 171.657 94.797C181.098 94.797 185.023 93.179 194.582 85.346C214.882 68.712 248.114 60.756 296.637 60.912C342.919 61.062 375.805 69.4150000000001 394.403 85.746C399.004 89.787 405.209 93.8679999999999 408.189 94.813C417.524 97.776 430.709 93.593 440.815 84.463C458.021 68.918 490.312 60.876 535.669 60.843C585.0649999999999 60.803 617.768 68.548 637.358 84.913C654.856 99.532 668.861 99.567 684.9499999999999 85.034C704.564 67.314 743.997 59.17 798.5659999999999 61.571C843.5379999999999 63.549 866.5799999999999 70.144 884.9859999999999 86.306C892.9639999999998 93.3100000000001 896.6809999999999 94.7990000000001 906.1929999999998 94.7990000000001C915.9389999999999 94.7990000000001 919.7669999999998 93.1750000000001 930.8869999999998 84.3230000000001C951.9709999999998 67.5400000000001 979.6109999999998 60.979 1029.7109999999998 60.8670000000001C1058.2229999999997 60.8030000000001 1068.8689999999997 57.1980000000001 1075.1379999999997 45.4830000000001C1079.4179999999997 37.485 1078.5549999999996 21.9620000000001 1073.3899999999996 14.0840000000001C1066.5059999999996 3.5790000000001 1055.6679999999997 0.4250000000001 1026.6419999999996 0.4810000000001C984.1379999999996 0.5610000000001 948.0559999999996 7.2660000000001 921.9379999999996 19.9310000000002L907.6599999999996 26.8540000000002L888.7819999999996 18.7720000000002C856.0569999999996 4.7620000000002 838.1329999999996 1.9260000000002 783.0909999999996 2.0440000000002C737.9339999999995 2.1440000000002 732.0489999999995 2.6860000000003 709.3229999999995 8.8730000000002C695.7399999999996 12.5710000000001 679.3949999999995 18.2560000000002 672.9999999999995 21.5050000000001L661.3739999999996 27.4140000000001L646.1099999999996 20.3110000000002C589.4859999999995 -6.0389999999998 483.2489999999996 -6.0489999999998 430.5349999999996 20.2950000000002C416.4519999999996 27.3320000000002 416.3689999999996 27.3410000000002 407.8639999999996 22.7680000000001C354.6959999999996 -5.8219999999999 243.7459999999996 -6.9349999999999 185.7159999999996 20.5400000000002C171.0609999999996 27.4790000000002 170.8289999999996 27.5040000000002 163.0679999999996 22.9870000000002C131.7749999999996 4.7780000000002 39.3709999999996 -6.8479999999997 16.3119999999996 4.5230000000001zM16.818 145.074C5.189 151.351 0.579 158.857 0.517 171.615C0.375 194.579 11.829 201.722 48.778 201.793C98.323 201.886 126.076 208.5070000000001 147.093 225.24C158.159 234.049 162.066 235.716 171.645 235.716C181.076 235.716 185.011 234.098 194.511 226.313C214.695 209.774 247.695 201.692 294.473 201.832C342.908 201.975 375.4980000000001 210.076 394.387 226.666C409.948 240.33 423.426 239.9659999999999 440.414 225.426C458.883 209.616 490.358 201.7959999999999 535.65 201.762C585.0459999999999 201.7249999999999 617.749 209.467 637.3389999999999 225.832C654.837 240.451 668.842 240.486 684.9309999999999 225.953C704.545 208.233 743.978 200.089 798.5469999999999 202.489C843.5189999999999 204.467 866.5609999999999 211.062 884.9669999999999 227.2240000000001C892.9449999999998 234.2280000000001 896.6619999999999 235.7170000000001 906.1739999999998 235.7170000000001C915.9199999999998 235.7170000000001 919.7479999999998 234.0930000000001 930.8679999999998 225.2410000000001C951.7059999999998 208.6530000000001 979.6829999999998 201.8920000000001 1027.8859999999997 201.7940000000001C1055.4569999999997 201.7380000000001 1067.1869999999997 198.2420000000001 1073.8309999999997 188.1030000000001C1079.6449999999998 179.2330000000001 1079.0529999999997 163.177 1072.5899999999997 154.0930000000001C1064.4969999999996 142.7280000000001 1053.7479999999996 140.4860000000001 1014.7969999999996 142.0360000000001C975.5019999999998 143.6 951.5459999999998 148.1830000000001 925.0749999999998 159.2040000000001L906.3879999999996 166.984L887.7009999999997 159.2040000000001C854.9119999999997 145.5540000000001 837.6559999999997 142.8720000000001 783.0839999999997 142.9400000000001C738.4099999999997 142.9960000000001 731.8509999999998 143.5820000000001 709.8819999999997 149.4770000000001C696.6099999999997 153.0390000000001 680.0689999999997 158.8330000000001 673.1239999999997 162.3520000000001C662.2879999999997 167.8430000000001 659.8189999999997 168.2810000000001 655.7319999999996 165.4410000000002C648.2939999999996 160.2720000000002 617.5399999999996 149.9470000000001 598.1219999999996 146.0990000000002C586.8419999999996 143.8640000000002 564.2149999999996 142.6560000000002 535.2099999999996 142.7400000000001C484.6329999999996 142.8900000000001 457.2829999999996 147.6890000000001 430.7759999999996 161.0770000000001L416.9349999999996 168.0680000000001L401.8369999999996 161.0580000000001C369.9029999999996 146.2330000000001 351.3229999999996 143.0280000000001 296.1459999999996 142.8290000000001C251.1499999999996 142.6650000000001 243.4169999999997 143.2710000000001 223.1679999999996 148.5360000000001C210.7119999999996 151.7750000000001 194.1609999999996 157.4380000000001 186.3879999999996 161.1210000000001L172.2569999999996 167.8170000000001L156.6789999999996 160.8030000000001C130.2259999999996 148.8930000000002 103.6739999999996 143.6930000000001 62.1119999999996 142.2830000000001C30.4089999999996 141.2070000000001 23.1549999999996 141.6550000000001 16.8149999999996 145.0770000000001zM16.818 286.189C5.277 292.128 0.58 299.721 0.517 312.54C0.375 335.231 11.926 342.634 47.52 342.746C97.298 342.903 126.153 349.659 146.607 365.9460000000001C158.051 375.058 161.766 376.6410000000001 171.703 376.6410000000001C181.48 376.6410000000001 185.251 375.0970000000001 195.019 367.0930000000001C215.36 350.4260000000001 248.032 342.6 296.628 342.7570000000001C342.91 342.9070000000001 375.796 351.2600000000001 394.394 367.591C410.136 381.4120000000001 423.584 380.8730000000001 441.967 365.682C460.381 350.466 492.354 342.722 536.9159999999999 342.688C585.0189999999999 342.651 617.933 350.539 637.348 366.7580000000001C654.846 381.3770000000001 668.851 381.4120000000001 684.9399999999999 366.879C704.554 349.159 743.987 341.015 798.5559999999999 343.4160000000001C843.5279999999999 345.394 866.5699999999999 351.9890000000001 884.9759999999999 368.1510000000001C892.9539999999998 375.1550000000001 896.6709999999999 376.6440000000001 906.1829999999998 376.6440000000001C915.9289999999997 376.6440000000001 919.7569999999998 375.0200000000001 930.8769999999998 366.1680000000001C951.9609999999998 349.3850000000001 979.6009999999998 342.8240000000001 1029.7009999999998 342.7120000000001C1058.2129999999997 342.6480000000002 1068.8589999999997 339.0430000000001 1075.1279999999997 327.3280000000001C1079.6929999999998 318.7960000000001 1078.4809999999998 303.2810000000001 1072.5959999999998 295.0200000000001C1064.5029999999997 283.6550000000001 1053.7539999999997 281.4130000000001 1014.8029999999998 282.9630000000001C975.5079999999998 284.5270000000001 951.5519999999998 289.1100000000002 925.0809999999998 300.1310000000001L906.3939999999998 307.9110000000001L887.7069999999998 300.1310000000001C854.7909999999997 286.4280000000001 837.6689999999998 283.7720000000001 783.0899999999998 283.8970000000001C738.6349999999998 283.9970000000001 731.7489999999998 284.615 709.8879999999998 290.4450000000001C696.6159999999998 293.9840000000001 680.0749999999998 299.759 673.1299999999998 303.279C662.2939999999998 308.769 659.8249999999998 309.208 655.7379999999997 306.3680000000001C648.2999999999997 301.1990000000001 617.5459999999997 290.874 598.1279999999997 287.0260000000001C586.8489999999997 284.7910000000001 564.2209999999997 283.5830000000001 535.2159999999997 283.6670000000001C484.6389999999997 283.817 457.2889999999996 288.616 430.7819999999997 302.004L416.9409999999997 308.995L401.8429999999997 301.985C369.9099999999997 287.16 351.3289999999997 283.9550000000001 296.1519999999997 283.756C251.1559999999997 283.592 243.4229999999997 284.198 223.1739999999997 289.463C210.7179999999997 292.702 193.8629999999997 298.511 185.7189999999997 302.371C171.0619999999997 309.32 170.8329999999997 309.3450000000001 163.0709999999997 304.828C140.8639999999997 291.906 92.9569999999997 282.294 50.7999999999997 282.303C31.9259999999997 282.308 22.2199999999997 283.418 16.8269999999997 286.194zM816.642 530.043C803.1590000000001 535.908 799.6210000000001 544.292 798.2080000000001 573.729L796.9520000000001 599.9300000000001L778.0720000000001 605.366C767.6880000000001 608.356 751.4590000000001 615.127 742.0080000000002 620.412L724.8240000000002 630.0219999999999L705.1850000000002 610.9110000000001C686.3550000000001 592.586 685.0580000000002 591.8 673.6820000000001 591.8C663.5440000000001 591.8 660.5710000000001 593.0450000000001 653.2610000000001 600.356S644.7040000000001 610.639 644.7040000000001 620.777C644.7040000000001 632.154 645.489 633.45 663.815 652.28L682.927 671.9179999999999L673.317 689.102C668.0310000000001 698.553 661.261 714.7819999999999 658.271 725.1659999999999L652.8349999999999 744.046L626.3019999999999 745.304C595.6359999999999 746.759 587.8619999999999 750.5609999999999 582.1059999999999 766.922C579.1029999999998 775.453 579.1599999999999 777.9879999999999 582.5339999999999 786.001C588.7259999999999 800.7539999999999 596.5699999999998 804.256 626.6429999999999 805.699L652.8439999999999 806.957L658.28 825.837C661.269 836.221 668.04 852.45 673.326 861.902L682.936 879.086L663.8240000000001 898.7239999999999C645.5000000000001 917.554 644.7130000000001 918.851 644.7130000000001 930.227C644.7130000000001 940.365 645.9610000000001 943.337 653.2700000000001 950.648S663.5530000000001 959.204 673.6910000000001 959.204C685.0670000000001 959.204 686.3640000000001 958.418 705.1940000000002 940.093L724.8330000000002 920.982L742.0170000000002 930.592C751.4680000000002 935.877 767.6970000000001 942.648 778.0810000000001 945.638L796.9610000000001 951.074L798.2160000000001 977.607C799.6710000000002 1008.272 803.4730000000001 1016.046 819.8330000000001 1021.803C828.364 1024.805 830.8990000000001 1024.749 838.9130000000001 1021.382C853.6650000000001 1015.187 857.1670000000001 1007.345 858.6110000000001 977.273L859.8670000000001 951.071L878.748 945.635C889.1320000000001 942.645 905.3610000000002 935.874 914.812 930.589L931.996 920.979L951.634 940.09C970.464 958.415 971.76 959.201 983.137 959.201C993.275 959.201 996.248 957.956 1003.5580000000002 950.645S1012.1140000000001 940.362 1012.1140000000001 930.224C1012.1140000000001 918.847 1011.3290000000002 917.551 993.0030000000002 898.721L973.8910000000002 879.0830000000001L983.5010000000002 861.899C988.7870000000001 852.4480000000001 995.5570000000002 836.219 998.5470000000003 825.8340000000001L1003.9830000000002 806.9540000000001L1030.1840000000002 805.696C1060.256 804.2520000000001 1068.0980000000002 800.75 1074.2930000000001 785.998C1077.66 777.985 1077.717 775.45 1074.7210000000002 766.9190000000001C1068.9640000000002 750.558 1061.1900000000003 746.7560000000001 1030.5250000000003 745.301L1003.9920000000004 744.0430000000001L998.5560000000002 725.163C995.5670000000002 714.779 988.7950000000004 698.5500000000001 983.5100000000002 689.099L973.9000000000002 671.915L993.0120000000002 652.277C1011.3360000000002 633.4470000000001 1012.1230000000002 632.1500000000001 1012.1230000000002 620.7740000000001C1012.1230000000002 610.6360000000001 1010.8750000000002 607.664 1003.5660000000001 600.3530000000001S993.2830000000002 591.797 983.145 591.797C971.7680000000003 591.797 970.472 592.5830000000001 951.642 610.9080000000001L932.003 630.019L914.819 620.4090000000001C905.368 615.123 889.1390000000001 608.3530000000001 878.7550000000001 605.363L859.8740000000001 599.9270000000001L858.6190000000001 573.7260000000001C857.1920000000001 543.9780000000001 853.6400000000001 535.7860000000001 839.6310000000001 529.933C829.2490000000001 525.595 826.8520000000001 525.606 816.6580000000001 530.0400000000001zM864.376 663.8299999999999C882.7149999999999 669.819 896.886 678.613 911.09 692.816C934.552 716.278 945.1209999999998 741.9559999999999 945.1209999999998 775.5039999999999C945.1209999999998 809.048 934.5529999999998 834.726 911.09 858.192C887.627 881.654 861.949 892.223 828.4019999999999 892.223C794.858 892.223 769.1809999999999 881.655 745.7139999999999 858.192C722.252 834.73 711.683 809.0519999999999 711.683 775.5039999999999C711.683 741.96 722.251 716.2829999999999 745.7139999999999 692.816C763.9 674.63 787.4499999999999 662.568 812.0409999999999 658.844C824.2439999999999 656.996 851.3549999999999 659.579 864.3689999999999 663.829zM231.662 595.877C224.461 602.273 212.25 611.5540000000001 204.526 616.5029999999999C189.11 626.38 145.562 646.279 123.796 653.393C102.187 660.4559999999999 91.513 666.71 87.359 674.741C75.207 698.24 94.619 723.331 120.459 717.526C148.151 711.304 216.586 681.01 241.833 663.7959999999999L255.438 654.521L268.57 663.24C300.82 684.653 377.078 717.365 396.747 718.22C422.705 719.3499999999999 437.321 690.154 420.748 670.275C417.8159999999999 666.76 404.132 660.015 386.2299999999999 653.262C342.7639999999999 636.8679999999999 303.3509999999999 616.583 287.3659999999999 602.376C270.1759999999999 587.101 264.8699999999999 584.248 253.6419999999999 584.248C246.6369999999999 584.248 241.9759999999999 586.7149999999999 231.6599999999999 595.876zM151.138 777.062C143.938 783.458 131.726 792.739 124.002 797.688C108.586 807.565 65.038 827.464 43.272 834.578C21.663 841.6410000000001 10.989 847.895 6.835 855.926C-1.693 872.417 4.93 890.626 22.052 897.782C28.936 900.658 32.32 900.624 44.09 897.561C75.894 889.277 134.591 862.903 161.271 844.913L174.834 835.7660000000001L190.21 845.751C224.432 867.975 296.363 898.5440000000001 316.493 899.4200000000001C342.19 900.538 356.701 871.222 340.229 851.463C337.297 847.947 323.613 841.203 305.711 834.45C262.245 818.056 222.832 797.771 206.847 783.5640000000001C189.657 768.289 184.351 765.437 173.124 765.437C166.119 765.437 161.457 767.904 151.142 777.065z" />
    <glyph glyph-name="bed"
      unicode="&#xF116;"
      horiz-adv-x="1024" d=" M916.4 608H915.6C891.6 608 872 588.4 872 564.4C872 562 870 560 867.6 560H156.4C154 560 152 562 152 564.4C152 588.4 132.4 608 108.4 608H107.6C83.6 608 64 588.4 64 564.4V203.5999999999999C64 179.5999999999999 83.6 159.9999999999999 107.6 159.9999999999999H108.4C132.4 159.9999999999999 152 179.5999999999999 152 203.5999999999999V216C152 220.4 155.6 224 160 224H864C868.4 224 872 220.4 872 216V203.6C872 179.6 891.6 160 915.6 160H916.4C940.4 160 960 179.6 960 203.6V564.4C960 588.4 940.4 608 916.4 608z M168 596H213C217.4 596 221 599.6 221 604V630C221 647.6 235.4 662 253 662H448C465.6 662 480 647.6 480 630V604C480 599.6 483.6 596 488 596H536C540.4 596 544 599.6 544 604V630C544 647.6 558.4 662 576 662H771C788.6 662 803 647.6 803 630V604C803 599.6 806.6 596 811 596H856C864.8 596 872 603.2 872 612V800C872 835.2 843.2 864 808 864H216C180.8 864 152 835.2 152 800V612C152 603.2 159.2 596 168 596z" />
    <glyph glyph-name="beer"
      unicode="&#xF117;"
      horiz-adv-x="1024" d=" M224 700C224 726.6 245.4 748 272 748H731C740.8 748 750.2 745 758 739.2L758 739.2C762 736.2 767.8 739.2 767.6 744.2C767.4 755.5999999999999 767.2 762.8 767.2 787.4C767.2 829 732.8000000000001 864 691 864L690.6 864C679.2 864.8 669 872 664.8000000000001 882.5999999999999C646.8000000000001 927.8 600.2 959.8 552.0000000000001 959.8C510.0000000000001 959.8 483.6000000000001 945.8 464.0000000000001 923.2C455.2000000000001 913.2 440.4000000000001 911.4 429.2000000000001 918.4C414.6000000000001 927.6 397.0000000000001 932.6 378.2000000000001 932.6C349.4000000000001 932.6 323.8000000000002 918.4 306.6000000000002 897.8C298.6000000000002 888 285.8000000000002 883.8 273.4000000000002 886C263.0000000000002 888 248.2000000000002 889.5999999999999 228.0000000000002 889.5999999999999C178.0000000000002 889.5999999999999 128.0000000000002 856.4 128.0000000000002 804.8V796.8C128.0000000000002 739.1999999999999 160.0000000000002 751 160.0000000000002 713.1999999999999C160.0000000000002 677.3999999999999 160.0000000000002 611.5999999999999 160.0000000000002 611.5999999999999C160.0000000000002 584.8 137.6000000000001 572.9999999999999 137.6000000000001 541.1999999999999C137.6000000000001 523.5999999999999 153.6000000000001 507.5999999999999 171.2000000000001 507.5999999999999H224V700z M772 120H220C204.6 120 192 107.4 192 92S204.6 64 220 64H772C787.4 64 800 76.6 800 92S787.4 120 772 120z M800 636H736V684C736 701.6 721.6 716 704 716H288C270.4 716 256 701.6 256 684V256.4C256 232.2 253.8 220 249.6 196.1999999999999L249.4 195.1999999999999C247.8 185.8 249.8 176.1999999999999 255 168.1999999999999C261.8 157.9999999999999 273.2 151.8 285.6 151.8H713.4000000000001C721.6000000000001 151.8 729.6000000000001 154.5999999999999 735.6000000000001 160C745.0000000000001 168.2000000000001 748.6000000000001 180.6 746.0000000000001 192C740.6000000000001 215.6 737.0000000000001 227.6 736.4000000000001 251.8H800C852.8 251.8 896 295 896 347.8V539.8C896 592.8 852.8 636 800 636zM840 348C840 326 822 308 800 308H736V580H800C822 580 840 562 840 540V348z" />
    <glyph glyph-name="bicycle"
      unicode="&#xF118;"
      horiz-adv-x="1024" d=" M250.6 445.4C285.2 445.4 318 431.8 342.8 407C367.6 382.2000000000001 381.2 349.4 381.2 314.8C381.2 280.2 367.6 247.4 342.8 222.5999999999999C318 197.8 285.2 184.1999999999999 250.6 184.1999999999999C216 184.1999999999999 183.2 197.8 158.4 222.5999999999999C133.6 247.2000000000001 120 280 120 314.6C120 349.2000000000001 133.6 382 158.4 406.8000000000001C183.2 431.6 216 445.4 250.6 445.4M250.6 501.4C148 501.4 64 417.4 64 314.8C64 212 148 128 250.6 128C353.2 128 437.2 212 437.2 314.6C437.4 417.4 353.4 501.4 250.6 501.4L250.6 501.4z M639.6 768.4C675.2 768.4 703.6 796.8 703.6 832.4C703.6 868 675.6 896 640 896C604.4 896 575.6 868 575.6 832.4C575.6 797 604.2 768.4 639.6 768.4z M773.4 445.4C808 445.4 840.8 431.8 865.6 407C890.4 382.2000000000001 904 349.4 904 314.8C904 280.2 890.4 247.4 865.6 222.5999999999999C840.8 197.6 808 184 773.4 184C738.8 184 706 197.6 681.1999999999999 222.4C656.4 247.2 642.8 280 642.8 314.6C642.8 349.2000000000001 656.4 382 681.1999999999999 406.8000000000001C705.8 431.6 738.6 445.4 773.4 445.4M773.4 501.4C670.8 501.4 586.8 417.4 586.8 314.8C586.8 212.1999999999999 670.8 128.1999999999999 773.4 128.1999999999999C876 128.1999999999999 960 212.1999999999999 960 314.8C960 417.4 876 501.4 773.4 501.4L773.4 501.4z M736 640H640L581 760.2C569.8 778.8 549.2 792 526.8 792C509.9999999999999 792 493.1999999999999 784.6 481.9999999999999 773.4L338.5999999999999 635.2C327.3999999999999 624 319.9999999999999 607.2 319.9999999999999 590.4000000000001C319.9999999999999 555.6 345.1999999999999 543.2 356.9999999999999 536.2C448 483.8 480 478 480 451.8C480 425.5999999999999 480 320 480 320C480 302.4 494.4 288 512 288C529.6 288 544 302.4 544 320C544 320 544 473.6 544 500S483.2 548 447.4 576L545.1999999999999 679C582.5999999999999 622 599.8 576 621.1999999999999 576C642.5999999999999 576 735.9999999999999 576 735.9999999999999 576C753.5999999999999 576 767.9999999999999 590.4 767.9999999999999 608S753.6 640 736 640z" />
    <glyph glyph-name="boat"
      unicode="&#xF119;"
      horiz-adv-x="1024" d=" M703.6 180C651.2 161.6 570.6 150.2000000000001 511.4 150.2000000000001C452.2 150.2000000000001 371.6 161.6 319.2000000000001 180C319.2000000000001 180 267.0000000000001 132.2000000000001 194.6000000000001 107.6C190.0000000000001 106 191.6000000000001 99.2000000000001 196.4000000000001 99.8000000000001C241.6000000000001 105.0000000000001 276.8000000000001 112.8000000000001 319.2000000000001 123.8000000000001C365.2000000000001 105.8000000000001 452.6 96.0000000000001 511.4 96.0000000000001C570.2 96.0000000000001 659.6 103.6000000000001 703.6 123.8000000000001C746.6 112.6 781.2 104.6 827.6 99.6C832.4 99 834 105.8000000000001 829.4 107.4C758 132.2000000000001 703.6 180 703.6 180z M891 498C891 498 891 498 891 498L518.6 669C514.4 671 509.4 671 505.2 669L133 498C133 498 133 498 133 498C120.6 492.2 112 479.8 112 465.2C112 460.4000000000001 113 456 114.6 451.8000000000001L224 180C279 180 337.4 224 337.4 224C373.4 206 443.6 189.8 496 186.8C501.6 186.4 507 186.4 512 186.4C517 186.4 522.4 186.6 528 186.8C580.4 189.8 650.6 205.8 686.6 224C686.6 224 745 180 800 180L909.4 451.8C911 456 912 460.4 912 465.1999999999999C912 479.8 903.4 492.2 891 498zM424 448C410.8 448 400 467.6 400 492S410.8 536 424 536S448 516.4 448 492S437.2 448 424 448zM600 448C586.8 448 576 467.6 576 492S586.8 536 600 536S624 516.4 624 492S613.2 448 600 448z M783.8 770L783.8 770.2C772.6 823.4 748.8 864 704 864H634.8L630.8 880C623.5999999999999 908.2 598 928 568.8 928H454.8C425.6 928 400 908.2 392.8 879.8L388.8 864H320C274.2 864 249.8 822.6 240.4 770L204 576.4C202.8 570 209.2 565 215.2 567.5999999999999L265.8 590.8C268.2 591.8 269.8 594 270.4000000000001 596.5999999999999L302.8 767.8C307.8 789.1999999999999 317.4000000000001 799.8 335 799.8H689.2C707 799.8 715.4000000000001 789.8 721.4000000000001 767.8L753.8000000000001 596.5999999999999C754.2 594 756.0000000000001 591.8 758.4000000000001 590.8L809.2 567.4C815.2 564.5999999999999 821.6 569.8 820.4000000000001 576.2L783.8 770z" />
    <glyph glyph-name="body"
      unicode="&#xF11A;"
      horiz-adv-x="1024" d=" M416 864C416 810.9806640162438 458.9806640162438 768 512 768C565.0193359837562 768 608 810.9806640162438 608 864C608 917.0193359837562 565.0193359837562 960 512 960C458.9806640162438 960 416 917.0193359837562 416 864z M848 736H176C149.4 736 128 714.6 128 688S149.4 640 176 640H373C384.2 638 399.4 632.4 407.4 611.6C416.8 587.4000000000001 412.2 544.4000000000001 406.4 508.2L398.8 465.4000000000001C398.8 465.2 398.8 465.0000000000001 398.6 464.8000000000001C398.6 464.8000000000001 398.6 464.8000000000001 398.6 464.8000000000001L337.8 120.4000000000001C333.2 94.4000000000001 350.6 69.4000000000001 376.8 64.8000000000001C403 60.2000000000001 427.4 77.6 432 103.8000000000001L473.9999999999999 343.6000000000002V343.2000000000002C473.9999999999999 343.2000000000002 486.3999999999999 408.2000000000002 510.9999999999999 408.2000000000002H513.1999999999999C538.1999999999999 408.2000000000002 550.1999999999999 343.2000000000002 550.1999999999999 343.2000000000002V343.4000000000002L592.1999999999999 103.6000000000001C596.8 77.6000000000001 621.5999999999999 60.2000000000002 647.5999999999999 64.8000000000002C673.8 69.4000000000002 690.9999999999999 94.4000000000002 686.3999999999999 120.4000000000002L625.5999999999999 464.8000000000002C625.5999999999999 464.8000000000002 625.5999999999999 464.8000000000002 625.5999999999999 464.8000000000002C625.5999999999999 465.0000000000002 625.5999999999999 465.2000000000002 625.3999999999999 465.4000000000002L617.7999999999998 508.2000000000002C611.9999999999999 544.4000000000001 607.3999999999999 587.4000000000001 616.7999999999998 611.6000000000001C624.7999999999998 632.4000000000001 639.9999999999999 638.0000000000001 651.1999999999998 640.0000000000001H848C874.6 640.0000000000001 896 661.4000000000001 896 688.0000000000001S874.6 736 848 736z" />
    <glyph glyph-name="briefcase"
      unicode="&#xF11B;"
      horiz-adv-x="1024" d=" M160 128H864C899.4 128 928 156.6 928 192V576H96V192C96 156.6 124.6 128 160 128z M864 768H848V784C848 792.8 840.8 800 832 800H768C759.2 800 752 792.8 752 784V768H696V832C696 867.2 667.2 896 632 896H392C356.8 896 328 867.2 328 832V768H272V784C272 792.8 264.8 800 256 800H192C183.2 800 176 792.8 176 784V768H160C124.6 768 96 739.4 96 704V624H928V704C928 739.4 899.4 768 864 768zM640 768H384V824C384 832.8 391.2 840 400 840H624C632.8 840 640 832.8 640 824V768z" />
    <glyph glyph-name="bus"
      unicode="&#xF11C;"
      horiz-adv-x="1024" d=" M219.2 190.6C215.4 194.4 207.8 191.6 208 186.2000000000001C210 143.2000000000001 210.8 128.2000000000001 219 128.2000000000001C228.2 128.2000000000001 320.4 128.2000000000001 329.2 128.2000000000001C338 128.2000000000001 335.8 151.2000000000001 335.8 172.2000000000001C267.2 172 242 167.6 219.2 190.6z M804.8 190.6C808.5999999999999 194.4 816.1999999999999 191.6 816 186.2000000000001C814 143.2000000000001 813.2 128.2000000000001 805 128.2000000000001C795.8 128.2000000000001 703.6 128.2000000000001 694.8 128.2000000000001C686 128.2000000000001 688.1999999999999 151.2000000000001 688.1999999999999 172.2000000000001C756.8 172 782 167.6 804.8 190.6z M768 896H752H272H256C220.8 896 192 867.2 192 832L192 832L192 280C192 236 228 200 272 200H752C796 200 832 236 832 280V832L832 832C832 867.2 803.2 896 768 896zM324 272.2000000000001C294.4 269.8000000000001 270 294.4000000000001 272.2 324C274 347.2000000000001 292.8 366.2000000000001 316.2 368C345.8 370.4 370.2 345.8 368 316.2000000000001C366 292.8 347.2 274 324 272.2000000000001zM476 428H280.4C262.6 428 248 442.6 248 460.4V691.6C248 709.4000000000001 262.6 724 280.4 724H476C480.4 724 484 720.4 484 716V436C484 431.6 480.4 428 476 428zM707.8 272.2000000000001C678.1999999999999 269.8000000000001 653.8 294.4000000000001 656 324C657.8 347.2000000000001 676.6 366.2000000000001 700 368C729.6 370.4 754 345.8 751.8 316.2000000000001C750 292.8 731.2 274 707.8 272.2000000000001zM776 460C776 442.4 761.6 428 744 428H548C543.6 428 540 431.6 540 436V716C540 720.4 543.6 724 548 724H744C761.6 724 776 709.6 776 692V460zM746 784H278C260.4 784 248 796.6 248 812C248 827.4 260.4 840 278 840H746C763.6 840 776 827.4 776 812C776 796.6 763.6 784 746 784z" />
    <glyph glyph-name="business"
      unicode="&#xF11D;"
      horiz-adv-x="1024" d=" M292 864H732C751.8 864 768 880.2 768 900L768 900C768 919.8 751.8 936 732 936H292C272.2 936 256 919.8 256 900L256 900C256 880.2 272.2 864 292 864z M796 824H228C208.2 824 192 807.8 192 788C192 769.4 205.8 753.8 224 752V152C224 125.6 245.6 104 272 104H448C456.8 104 464 111.2000000000001 464 120V200C464 208.8 471.2 216 480 216H544C552.8 216 560 208.8 560 200V120C560 111.2000000000001 567.2 104 576 104H752C778.4 104 800 125.6 800 152V752C818.2 753.8 832 769.4 832 788C832 807.8 815.8 824 796 824zM384 296C384 287.2000000000001 376.8 280 368 280H336C327.2 280 320 287.2000000000001 320 296V328C320 336.8 327.2 344 336 344H368C376.8 344 384 336.8 384 328V296zM384 424C384 415.2000000000001 376.8 408 368 408H336C327.2 408 320 415.2000000000001 320 424V456C320 464.8 327.2 472 336 472H368C376.8 472 384 464.8 384 456V424zM384 552C384 543.2 376.8 536 368 536H336C327.2 536 320 543.2 320 552V584C320 592.8 327.2 600 336 600H368C376.8 600 384 592.8 384 584V552zM384 680C384 671.2 376.8 664 368 664H336C327.2 664 320 671.2 320 680V712C320 720.8 327.2 728 336 728H368C376.8 728 384 720.8 384 712V680zM544 296C544 287.2000000000001 536.8 280 528 280H496C487.2 280 480 287.2000000000001 480 296V328C480 336.8 487.2 344 496 344H528C536.8 344 544 336.8 544 328V296zM544 424C544 415.2000000000001 536.8 408 528 408H496C487.2 408 480 415.2000000000001 480 424V456C480 464.8 487.2 472 496 472H528C536.8 472 544 464.8 544 456V424zM544 552C544 543.2 536.8 536 528 536H496C487.2 536 480 543.2 480 552V584C480 592.8 487.2 600 496 600H528C536.8 600 544 592.8 544 584V552zM544 680C544 671.2 536.8 664 528 664H496C487.2 664 480 671.2 480 680V712C480 720.8 487.2 728 496 728H528C536.8 728 544 720.8 544 712V680zM704 296C704 287.2000000000001 696.8 280 688 280H656C647.2 280 640 287.2000000000001 640 296V328C640 336.8 647.2 344 656 344H688C696.8 344 704 336.8 704 328V296zM704 424C704 415.2000000000001 696.8 408 688 408H656C647.2 408 640 415.2000000000001 640 424V456C640 464.8 647.2 472 656 472H688C696.8 472 704 464.8 704 456V424zM704 552C704 543.2 696.8 536 688 536H656C647.2 536 640 543.2 640 552V584C640 592.8 647.2 600 656 600H688C696.8 600 704 592.8 704 584V552zM704 680C704 671.2 696.8 664 688 664H656C647.2 664 640 671.2 640 680V712C640 720.8 647.2 728 656 728H688C696.8 728 704 720.8 704 712V680z" />
    <glyph glyph-name="cafe"
      unicode="&#xF11E;"
      horiz-adv-x="1024" d=" M739.4 216H220.2C205 216 192 204.4 191.4 189.2000000000001C190.6 173.2000000000001 203.4 160 219.4 160H738.6C753.8000000000001 160 766.8000000000001 171.6 767.4 186.8C768 202.8 755.2 216 739.4 216z M798.4 787C798.6 808.6 790 828.8 774 843.8C759.6 857 740.6 864 721 864H173.6C153.8 864 134.2 856.8 119.8 843.2C103.6 827.8 95 806.8 96 784.6C100.8 680 116.6 588 143.6 511.4C165.6 448.2 195.2 395.2 231.4 353.5999999999999C295 280.3999999999999 369 255.9999999999999 387.2 255.9999999999999H507.4C518.4 255.9999999999999 557.4 270.3999999999999 595.8 294.9999999999999C640.5999999999999 323.7999999999999 680.5999999999999 368.3999999999999 712 424.1999999999998C712 424.1999999999998 712 424.1999999999998 712 424.1999999999998C716 423.9999999999998 720 423.7999999999999 723.8 423.7999999999999C778.1999999999999 423.7999999999999 829.4 443.1999999999998 868 478.5999999999998C906.8 514.1999999999998 928.2 561.3999999999999 928.2 611.7999999999997C928 689.6 876.4 758.8 798.4 787C798.4 787 798.4 787 798.4 787zM739 480.8C767.4 549.8 786.2 632.8 794.6 727.5999999999999C794.6 727.5999999999999 794.6 727.8 794.8000000000001 727.5999999999999C815.4000000000001 717.5999999999999 833.0000000000001 703.2 846.4000000000001 685.8C863.2 664 872.0000000000001 638.4 872.0000000000001 611.8C872 543.8 813.6 487.6 739 480.8C739 480.8 739 480.8 739 480.8z" />
    <glyph glyph-name="calendar"
      unicode="&#xF11F;"
      horiz-adv-x="1024" d=" M848 832H768V784C768 775.2 760.8 768 752 768H720C711.2 768 704 775.2 704 784V832H320V784C320 775.2 312.8 768 304 768H272C263.2 768 256 775.2 256 784V832H176C132 832 96 796 96 752V208C96 164 132 128 176 128H848C892 128 928 164 928 208V752C928 796 892 832 848 832zM864 232C864 210 846 192 824 192H200C178 192 160 210 160 232V592C160 600.8 167.2 608 176 608H848C856.8 608 864 600.8 864 592V232z M320 880C320 888.8 312.8 896 304 896H272C263.2 896 256 888.8 256 880V832H320V880z M768 880C768 888.8 760.8 896 752 896H720C711.2 896 704 888.8 704 880V832H768V880z" />
    <glyph glyph-name="call"
      unicode="&#xF120;"
      horiz-adv-x="1024" d=" M873.8 294.4C844.4 323.8 773.8 368 739 384.6C698.6 404 683.8 403.6 655.2 383C631.4000000000001 365.8 616 349.8 588.6 355.8C561.2 361.5999999999999 507.2 402.5999999999999 454.8 454.8C402.4000000000001 507.1999999999999 361.6 561.1999999999999 355.8 588.5999999999999C350 616.2 366 631.4 383 655.1999999999999C403.6 683.8 404.2 698.5999999999999 384.6 739C368 774 324 844.4 294.4 873.8C265 903.2 258.4 896.8 242.2 891C242.2 891 218.2 881.4 194.4 865.6C165 846 148.6 829.6 137 805C125.6 780.4 112.4 734.6 179.6 615C233.8 518.4 287 445.2000000000001 366 366.4V366.4C366 366.4 366 366.4 366.2 366.2C366.2 366.2 366.2 366.2 366.4 365.9999999999999L366.4 365.9999999999999C445.4 286.9999999999999 518.4 233.8 615 179.5999999999999C734.6 112.3999999999999 780.4 125.5999999999999 805 136.9999999999999C829.6 148.3999999999999 846 164.7999999999999 865.6 194.3999999999999C881.4 218.1999999999998 891 242.1999999999998 891 242.1999999999998C896.8 258.4 903.4 265 873.8 294.4z" />
    <glyph glyph-name="camera"
      unicode="&#xF121;"
      horiz-adv-x="1024" d=" M397 474C397 410.4872537694588 448.4872537694588 359 512 359C575.5127462305412 359 627 410.4872537694588 627 474C627 537.5127462305413 575.5127462305412 589 512 589C448.4872537694588 589 397 537.5127462305413 397 474z M835 704L726 704C716.8 704 708.2 708 702 714.8C645.2 778.4 623.8 800 600.6 800H429.6C406.2000000000001 800 383.2000000000001 778.4 326.2000000000001 714.6C320.2000000000001 707.8 311.4000000000001 704 302.4000000000001 704L294.2000000000001 704V720C294.2000000000001 728.8 287.0000000000001 736 278.2000000000001 736H226.2000000000001C217.4 736 210.2000000000001 728.8 210.2000000000001 720V704H195.2000000000001C159.8 704 128 677.6 128 642.6V290.6C128 255.6 159.8 224 195 224H835C870.2 224 896 255.6 896 290.6V642.6C896 677.6 870.2 704 835 704zM520 303.2000000000001C419.4 298.6 336.6 381.4000000000001 341.2 482C345.2 569.8 416.2 640.8 504 644.8C604.6 649.4000000000001 687.4 566.6 682.8 466C678.8 378.2000000000001 607.8 307.2000000000001 520 303.2000000000001zM704 588C689.6 588 678 599.6 678 614S689.6 640 704 640S730 628.4 730 614S718.4 588 704 588z" />
    <glyph glyph-name="car"
      unicode="&#xF122;"
      horiz-adv-x="1024" d=" M832 631.6C804.4 693.2 734 816 632 816H392C290 816 222.4 697.2 192 631.6C144 585.6 96 540.2 96 462V310C96 302.6 101.2 296 108.4 294.4C138.2 287.6 232.8 274 512 274S885.8 287.6 915.6 294.4C922.8 296 928 302.6 928 310V462C928 540 883.4 588.2 832 631.6zM380 768C450 768 563 768 644 768S768 648 768 628H256C256 648 310 768 380 768zM224 360.6C188.6 360.6 160 389.2000000000001 160 424.6C160 460 188.6 488.6 224 488.6C259.4 488.6 288 460 288 424.6C288 389.4 259.4 360.6 224 360.6zM656 424C656 406.4 641.6 392 624 392H400C382.4 392 368 406.4 368 424L368 424C368 441.6 382.4 456 400 456H624C641.6 456 656 441.6 656 424L656 424zM800 360C764.6 360 736 388.6 736 424C736 459.4 764.6 488 800 488S864 459.4 864 424C864 388.6 835.4 360 800 360z M320 256C224.2 256 128 266 128 266C128 232 127.4 208 140 208S297.4 208 310 208S320 234.4 320 256z M704 256C800 256 896 266 896 266C896 234 900 208 886 208S727.4 208 714 208S704 235 704 256z" />
    <glyph glyph-name="card"
      unicode="&#xF123;"
      horiz-adv-x="1024" d=" M960 768C960 803.2 931.2 832 896 832H128C92.8 832 64 803.2 64 768V672H960V768z M64 256C64 220.8 92.8 192 128 192H896C931.2 192 960 220.8 960 256V576H64V256zM348 352H676C691.4 352 704 339.4 704 324L704 324C704 308.6 691.4 296 676 296H348C332.6 296 320 308.6 320 324L320 324C320 339.4 332.6 352 348 352zM204 352H228C243.4 352 256 339.4 256 324L256 324C256 308.6 243.4 296 228 296H204C188.6 296 176 308.6 176 324L176 324C176 339.4 188.6 352 204 352z" />
    <glyph glyph-name="chatboxes"
      unicode="&#xF124;"
      horiz-adv-x="1024" d=" M851.8 683.2H408.6C366.6 683.2 332.4000000000001 649 332.4000000000001 607V298.4C332.4000000000001 256.4 366.6 222.4 408.6 222.4H662.2C667.8000000000001 222.4 673.4000000000001 220 677.4000000000001 216L803.4000000000001 99.8C810.4000000000001 93 822.0000000000001 95.8 822.0000000000001 105.5999999999999L822.0000000000001 206.8C822.0000000000001 218.8 829.6000000000001 222.5999999999999 841.6000000000001 222.5999999999999H843.6000000000001C885.6000000000001 222.5999999999999 927.8000000000002 256.3999999999999 927.8000000000002 298.5999999999999V607C928 649.2 893.8 683.2 851.8 683.2z M348.8 732.2H703.6V862.8C703.6 898.8 674.4 928 638.4 928H161.2C125.2 928 96 898.8 96 862.8V532.4000000000001C96 496.4000000000001 125.2 467.2 161.2 467.2H283.4V667C283.6 703 312.8 732.2 348.8 732.2z" />
    <glyph glyph-name="checkmark-circle-outline"
      unicode="&#xF125;"
      horiz-adv-x="1024" d=" M725.2 638.2L690 674.4C688.6 676 686.4 676.8 684.4 676.8C684.4 676.8 684.4 676.8 684.4 676.8C682.1999999999999 676.8 680.1999999999999 676 678.8 674.4L434.8 428.5999999999999L346 517.4C344.4 519 342.4 519.8 340.4 519.8C338.4 519.8 336.4 519 334.8 517.4L299.2 481.8C296 478.5999999999999 296 473.5999999999999 299.2 470.4L411.2 358.4C418.3999999999999 351.2 427.2 347 434.5999999999999 347C445.2 347 454.3999999999999 354.8 457.7999999999999 358C457.7999999999999 358 457.7999999999999 358 457.9999999999999 358L725.3999999999999 626.8C728.2 630.2 728.2 635.2 725.2 638.2z M512 872C608.2 872 698.6 834.6 766.6 766.6S872 608.2 872 512S834.6 325.4 766.6 257.4S608.2 152 512 152C415.8 152 325.4 189.4 257.4 257.4C189.4 325.4 152 415.8 152 512S189.4 698.6 257.4 766.6C325.4 834.6 415.8 872 512 872M512 928C282.2 928 96 741.8 96 512S282.2 96 512 96C741.8 96 928 282.2000000000001 928 512S741.8 928 512 928L512 928z" />
    <glyph glyph-name="checkmark-circle"
      unicode="&#xF126;"
      horiz-adv-x="1024" d=" M512 928C282.2 928 96 741.8 96 512S282.2 96 512 96C741.8 96 928 282.2000000000001 928 512S741.8 928 512 928zM725 627L457.6 358.4C457.6 358.4 457.6 358.4 457.4 358.4C454.0000000000001 355 444.8 347.4 434.2000000000001 347.4C426.6 347.4 418.0000000000001 351.6 410.8000000000001 358.8L298.8000000000001 470.8C295.6000000000001 474 295.6000000000001 479 298.8000000000001 482.1999999999999L334.4000000000001 517.8C336.0000000000001 519.4 338.0000000000001 520.1999999999999 340.0000000000001 520.1999999999999C342.0000000000001 520.1999999999999 344.0000000000001 519.3999999999999 345.6000000000002 517.8L434.4000000000002 429L678.4000000000001 674.8C680.0000000000001 676.4000000000001 682.0000000000001 677.2 684.0000000000001 677.2C684.0000000000001 677.2 684.0000000000001 677.2 684.0000000000001 677.2C686.2000000000002 677.2 688.2000000000002 676.4 689.6000000000001 674.8L724.6000000000001 638.6C728.2 635.2 728.2 630.2 725 627z" />
    <glyph glyph-name="checkmark"
      unicode="&#xF127;"
      horiz-adv-x="1024" d=" M725.2 638.2L690 674.4C688.6 676 686.4 676.8 684.4 676.8C684.4 676.8 684.4 676.8 684.4 676.8C682.1999999999999 676.8 680.1999999999999 676 678.8 674.4L434.8 428.5999999999999L346 517.4C344.4 519 342.4 519.8 340.4 519.8C338.4 519.8 336.4 519 334.8 517.4L299.2 481.8C296 478.5999999999999 296 473.5999999999999 299.2 470.4L411.2 358.4C418.3999999999999 351.2 427.2 347 434.5999999999999 347C445.2 347 454.3999999999999 354.8 457.7999999999999 358C457.7999999999999 358 457.7999999999999 358 457.9999999999999 358L725.3999999999999 626.8C728.2 630.2 728.2 635.2 725.2 638.2z" />
    <glyph glyph-name="close-circle-outline"
      unicode="&#xF128;"
      horiz-adv-x="1024" d=" M662.6 406.6L557.2 512L662.6 617.4C675 629.8 675 650.2 662.6 662.5999999999999C650.2 675 629.8000000000001 675 617.4 662.5999999999999L512 557.2L406.6 662.6C394.2000000000001 675 375.4000000000001 676.8 361.4000000000001 662.6C347.2000000000001 648.4000000000001 349.4000000000001 629.4000000000001 361.4000000000001 617.4000000000001C373.4000000000001 605.4000000000001 466.8000000000001 512 466.8000000000001 512S374.8000000000001 420 361.4000000000001 406.6C348.0000000000001 393.2000000000001 348.6000000000001 374 361.4000000000001 361.4C374.2000000000001 348.6 394.2000000000001 349 406.6000000000001 361.4L512.0000000000001 466.8L617.4000000000001 361.4C629.8000000000001 349 650.2 349 662.6000000000001 361.4C675.2 373.8 675.2 394.2000000000001 662.6 406.6z M512 872C608.2 872 698.6 834.6 766.6 766.6S872 608.2 872 512S834.6 325.4 766.6 257.4S608.2 152 512 152C415.8 152 325.4 189.4 257.4 257.4C189.4 325.4 152 415.8 152 512S189.4 698.6 257.4 766.6C325.4 834.6 415.8 872 512 872M512 928C282.2 928 96 741.8 96 512S282.2 96 512 96C741.8 96 928 282.2000000000001 928 512S741.8 928 512 928L512 928z" />
    <glyph glyph-name="close-circle"
      unicode="&#xF129;"
      horiz-adv-x="1024" d=" M512 928C282.2 928 96 741.8 96 512S282.2 96 512 96C741.8 96 928 282.2000000000001 928 512S741.8 928 512 928zM617.4 361.4L512 466.8L406.6 361.4C394.2000000000001 349 373.8 349 361.4000000000001 361.4C355.2000000000001 367.6 352.0000000000001 375.8 352.0000000000001 384C352.0000000000001 392.2000000000001 355.2000000000001 400.4 361.4000000000001 406.6L466.8000000000001 512L361.4000000000001 617.4C355.2000000000001 623.5999999999999 352.0000000000001 631.8 352.0000000000001 640C352.0000000000001 648.2 355.2000000000001 656.4 361.4000000000001 662.6C373.8000000000001 675 394.2000000000001 675 406.6000000000001 662.6L512.0000000000001 557.2L617.4000000000001 662.6C629.8000000000001 675 650.2 675 662.6000000000001 662.6C675.0000000000001 650.2 675.0000000000001 629.8 662.6000000000001 617.4000000000001L557.2 512L662.6 406.6C675 394.2000000000001 675 373.8000000000001 662.6 361.4C650.2 348.8 629.8 348.8 617.4 361.4z" />
    <glyph glyph-name="close"
      unicode="&#xF12A;"
      horiz-adv-x="1024" d=" M557.2 512L693.6 648.4C706 660.8 706 681.2 693.6 693.5999999999999C681.2 706 660.8000000000001 706 648.4 693.5999999999999L512 557.2L375.6 693.6C363.2000000000001 706 342.8 706 330.4000000000001 693.6C324.2000000000001 687.4000000000001 321.0000000000001 679.2 321.0000000000001 671C321.0000000000001 662.8 324.2000000000001 654.6 330.4000000000001 648.4L466.8000000000001 512L330.4000000000001 375.6C324.2000000000001 369.4 321.0000000000001 361.2000000000001 321.0000000000001 353C321.0000000000001 344.8 324.2000000000001 336.6 330.4000000000001 330.4C342.8000000000001 318 363.2000000000001 318 375.6000000000001 330.4L512.0000000000001 466.8L648.4000000000001 330.4C660.8000000000001 318 681.2 318 693.6000000000001 330.4C706.0000000000001 342.8 706.0000000000001 363.2 693.6000000000001 375.6L557.2 512z" />
    <glyph glyph-name="cloud-done"
      unicode="&#xF12B;"
      horiz-adv-x="1024" d=" M874.2 564.4C858 714.8 730.8 832 576 832C473.6 832 383.4 780.8 329.2 702.6C312.6 709.4000000000001 294.4 713.2 275.4 713.2C197.2 713.2 133.8 644.4000000000001 132.6 566.4000000000001C52.8 541 0 463 0 381C0 280.6 81.4 192 181.8 192H842.4000000000001C942.8 192 1024.2 280.6 1024.2 381C1024 470.4 959.4 549.2 874.2 564.4zM725 599L457.6 330.4C457.6 330.4 457.6 330.4 457.4 330.4C454.0000000000001 327 444.8 319.4 434.2000000000001 319.4C426.6 319.4 418.0000000000001 323.6 410.8000000000001 330.8L298.8000000000001 442.8C295.6000000000001 446 295.6000000000001 451 298.8000000000001 454.1999999999999L334.4000000000001 489.8C336.0000000000001 491.4 338.0000000000001 492.1999999999999 340.0000000000001 492.1999999999999C342.0000000000001 492.1999999999999 344.0000000000001 491.4 345.6000000000002 489.8L434.4000000000002 401L678.4000000000001 646.8C680.0000000000001 648.4000000000001 682.0000000000001 649.2 684.0000000000001 649.2C684.0000000000001 649.2 684.0000000000001 649.2 684.0000000000001 649.2C686.2000000000002 649.2 688.2000000000002 648.4 689.6000000000001 646.8L724.6000000000001 610.6C728.2 607.2 728.2 602.2 725 599z" />
    <glyph glyph-name="cloud-download"
      unicode="&#xF12C;"
      horiz-adv-x="1024" d=" M874.2 692.4C858 842.8 730.8 960 576 960C473.6 960 383.4 908.8 329.2 830.6C312.6 837.4 294.4 841.2 275.4 841.2C197.2 841.2 133.8 772.4 132.6 694.4C52.8 669 0 591 0 509C0 408.6 81.4 320 181.8 320H486V602C486 616.4 497.6 628 512 628S538 616.4 538 602V320H842.2C942.6 320 1024 408.6 1024 509C1024 598.4 959.4 677.2 874.2 692.4z M486 152.2000000000001L390.2 246.6C380 256.6 363.6 256.6 353.4 246.4C343.4 236.2 343.4 219.8 353.6 209.6L493.6 71.6C498.6 66.8000000000001 505.2 64.2000000000001 511.8 64.2000000000001C515.1999999999999 64.2000000000001 518.5999999999999 64.8000000000001 521.8 66.2000000000001C524.8 67.4000000000001 527.5999999999999 69.4000000000001 530 71.6C530 71.6 530 71.6 530 71.6L670 209.6C680.2 219.6 680.4 236.2000000000001 670.2 246.4C660.2 256.6 643.6 256.8 633.4000000000001 246.6L538 152.2000000000001V320H486V152.2000000000001z" />
    <glyph glyph-name="cloud-upload"
      unicode="&#xF12D;"
      horiz-adv-x="1024" d=" M874.2 692.4C858 842.8 730.8 960 576 960C473.6 960 383.4 908.8 329.2 830.6C312.6 837.4 294.4 841.2 275.4 841.2C197.2 841.2 133.8 772.4 132.6 694.4C52.8 669 0 591 0 509C0 408.6 81.4 320 181.8 320H486V603.8L390.2 509.4C380 499.4 363.6 499.4 353.4 509.6C343.4 519.8 343.4 536.2 353.6 546.4000000000001L493.6 684.4000000000001C493.6 684.4000000000001 493.6 684.4000000000001 493.6 684.4000000000001C495.9999999999999 686.6 498.6 688.6 501.8 689.8C504.9999999999999 691.2 508.4 691.8 511.8 691.8C518.5999999999999 691.8 525 689.2 530 684.4000000000001L670 546.4000000000001C680.2 536.4000000000001 680.4 519.8 670.2 509.6C660.2 499.4 643.6 499.2 633.4000000000001 509.4L538 603.8V320H842.2C942.6 320 1024 408.6 1024 509C1024 598.4 959.4 677.2 874.2 692.4z M486 90C486 75.6 497.6 64 512 64S538 75.6 538 90V320H486V90z" />
    <glyph glyph-name="cloud"
      unicode="&#xF12E;"
      horiz-adv-x="1024" d=" M874.2 564.4C858 714.8 730.8 832 576 832C473.6 832 383.4 780.8 329.2 702.6C312.6 709.4000000000001 294.4 713.2 275.4 713.2C197.2 713.2 133.8 644.4000000000001 132.6 566.4000000000001C52.8 541 0 463 0 381C0 280.6 81.4 192 181.8 192H842.4000000000001C942.8 192 1024.2 280.6 1024.2 381C1024 470.4 959.4 549.2 874.2 564.4z" />
    <glyph glyph-name="cloudy-night"
      unicode="&#xF12F;"
      horiz-adv-x="1024" d=" M555.6 434.4C554.6 434.4 553.4 434.6 552.4 434.6C547.1999999999999 434.6 542 434.6 536.8 434C518.1999999999999 515.6 445 577 357.4 577C255.8 577 173.6 495.2 173.6 394.2000000000001C173.6 388 174 382 174.6 376C112.6 370.6 64 315.8 64 252.8C64 186 117.6 128 184.6 128H555.6C639.4 128 707.2 197.4 707.2 280.6C707.2 363.8 639.4 434.4 555.6 434.4z M904.2 413.2000000000001C899.2 413 894.2 412.8000000000001 889 412.8000000000001C805.6 412.8000000000001 727.4 444.2000000000001 668.4 501.4000000000001C609.4 558.4000000000001 577 634.4000000000001 577 715.0000000000001C577 761.0000000000001 587.6 805.4000000000001 607.4 845.6000000000001L630.8 884C634.1999999999999 889.8 629.1999999999999 897 622.5999999999999 896C607.3999999999999 893.6 591.1999999999999 888 576.1999999999999 883.4C457.1999999999999 847 367.3999999999999 747.2 348.8 624.8C351.6 625 354.6 625 357.4 625C410.4 625 462.2 606.5999999999999 503.4 573.1999999999999C533.6 548.8 557.1999999999999 517.1999999999999 571.8 481.8C619.1999999999999 477.8 663.1999999999999 457 697.1999999999999 422.2C734.5999999999999 383.9999999999999 755.1999999999999 333.8 755.1999999999999 280.8C755.1999999999999 276.2 754.9999999999999 271.5999999999999 754.8 267.2C823.1999999999999 283.4 883.4 320.4 927.6 370.8C937.2 381.8 950.2 396.4 958.2 407.8C962.2 413.4 957.6 421.2 950.6 420.4C937 418.4 918.8 414 904.2 413.2000000000001z" />
    <glyph glyph-name="cloudy"
      unicode="&#xF130;"
      horiz-adv-x="1024" d=" M472 832C332 832 216.4 712.6 216.4 570.4C216.4 561.8 217 553.2 218 544.8C131.6 537 64 456.8 64 368C64 274 139.8 192 233.2 192H748.8C865.4 192 960 290.8 960 408C960 525.2 865.4 625.6 748.8 625.6C744.1999999999999 625.6 739.1999999999999 626 734.4 626C730.1999999999999 626 726 626 722.1999999999999 625.8C698.6 732.8 612 832 472 832L472 832z" />
    <glyph glyph-name="desktop"
      unicode="&#xF131;"
      horiz-adv-x="1024" d=" M704 139.6C703.4 144 700 147.4 695.6 148.2000000000001L651 152C627.4 158.2000000000001 610 184.4 606.4 208.6L604 224H420L417.6 208.8C413.8 184.5999999999999 396.6 158.4 373 152.1999999999999L328.4 148.4C324.2 147.4 320.6 144 320 139.8C319.2 133.5999999999999 324 128.1999999999999 330.2 128.1999999999999H693.8C699.8 128 704.8 133.4 704 139.6z M945.8 882C936.8 891 924.4 896 911.8 896H112.4C99.6 896 87.4 891 78.4 882S64 860.6 64 848V304C64 291.2000000000001 69.4 279 78.4 270S99.4 256 112 256H912C924.8 256 936.6 261 945.6 270S960 291.4 960 304V848C960.2 860.6 954.8 873 945.8 882zM512 304C503.2 304 496 311.2000000000001 496 320S503.2 336 512 336S528 328.8 528 320S520.8 304 512 304zM919.8 384H104.4C100 384 96.4 387.6 96.4 392V840C96.4 853.2 107.2 864 120.4 864H903.8C917 864 927.8 853.2 927.8 840V392C927.8 387.6 924.2 384 919.8 384z" />
    <glyph glyph-name="dogs-not-permitted"
      unicode="&#xF132;"
      horiz-adv-x="1024" d=" M467.665 1.167C464.277 1.657 451.524 3.279 439.3250000000001 4.772C427.1280000000001 6.2650000000001 402.6630000000001 11.172 384.9610000000001 15.677C147.2580000000001 76.163 -17.5969999999999 304.6980000000001 1.4850000000001 547.292C11.4430000000001 673.915 62.5130000000001 785.3960000000001 150.8040000000001 873.251C274.7210000000001 996.555 445.6840000000001 1048.092 615.4820000000001 1013.324C655.6070000000001 1005.108 689.989 993.697 727.1360000000001 976.267C893.7070000000001 898.104 1003.5240000000002 743.296 1022.2650000000002 560.23C1025.8480000000002 525.2530000000002 1024.067 465.1770000000001 1018.4370000000002 430.855C1000.9310000000002 324.175 950.8260000000002 226.5900000000001 874.2140000000002 149.984C790.6230000000002 66.393 683.3830000000002 15.0980000000001 565.0000000000002 2.087C544.1740000000002 -0.202 481.2650000000002 -0.7950000000001 467.6640000000002 1.17L467.6630000000002 1.168zM567.624 91.903C616.73 98.4260000000001 666.706 114.186 706.6990000000001 135.7580000000001C724.3620000000001 145.2850000000001 758.4050000000001 167.072 770.1510000000001 176.365L775.69 180.7480000000001L192.9010000000001 763.469S177.5890000000001 741.9380000000001 177.5890000000001 741.9380000000001C60.6580000000001 577.514 79.5650000000001 352.9730000000001 222.3540000000001 210.1870000000001C292.7310000000001 139.8100000000002 372.0050000000001 102.6300000000001 478.753 89.9440000000002C497.867 87.6710000000002 543.292 88.6750000000002 567.6210000000001 91.9060000000002L567.6250000000001 91.9020000000002zM353.13 223.645C350.448 224.692 347.633 228.2100000000001 346.864 231.463C345.614 236.755 344.44 237.25 335.717 236.163C314.796 233.558 286.396 235.153 272.201 239.73C236.552 251.227 215.765 287.646 216.561 337.217L216.77 350.771L219.676 334.7539999999999C226.909 294.8589999999999 251.236 278.2839999999999 292.544 285.1059999999999C301.667 286.6129999999999 313.063 289.4879999999999 317.869 291.4959999999999L326.607 295.1469999999998L325.392 321.7269999999999C322.765 379.1569999999998 339.38 407.0649999999999 394.65 438.0689999999999C407.757 445.4209999999998 425.007 457.3419999999999 432.982 464.5599999999998S448.424 477.6829999999999 449.573 477.6829999999999C450.726 477.6829999999999 490.192 439.1419999999999 537.285 392.0349999999999L622.903 306.3869999999999V292.3909999999999C622.903 273.5539999999999 625.886 266.9079999999999 636.624 261.8109999999998C647.73 256.5409999999999 653.0160000000001 245.8629999999999 649.505 235.7919999999998C645.572 224.5199999999998 630.507 222.0499999999999 586.555 225.4719999999998L566.2249999999999 227.0549999999997V310.3369999999998L539.5809999999999 281.7679999999998L547.5909999999999 271.9109999999999C558.2679999999999 258.7729999999998 561.2959999999999 252.6679999999998 561.2959999999999 244.2819999999998C561.2959999999999 234.3159999999998 555.212 226.9169999999998 544.5899999999999 223.9669999999998C533.9019999999999 220.9979999999997 360.6389999999999 220.7059999999998 353.1239999999999 223.6459999999997L353.1309999999999 223.6439999999998zM860.319 275.7910000000001C908.393 350.423 930.993 430.6210000000001 927.626 514.643C925.998 555.273 923.609 572.347 914.777 606.4300000000001C873.627 765.259 738.9379999999999 886.863 577.327 911.115C471.532 926.987 362.546 901.27 277.08 840.268L265.153 831.7550000000001S554.31 542.5910000000001 554.31 542.5910000000001C713.343 383.5500000000002 844.019 253.4340000000002 844.699 253.4420000000001C845.3979999999999 253.4490000000001 852.41 263.5050000000001 860.323 275.7900000000001L860.3199999999999 275.7910000000001zM547.401 576.9449999999999C454.14 670.697 458.502 664.815 445.726 713.8199999999999L438.866 740.1220000000001L434.402 731.4970000000001C431.943 726.753 429.282 717.0260000000001 428.471 709.8810000000001L427.011 696.8900000000001S394.141 729.847 394.141 729.847L361.271 762.8040000000001L377.755 779.126C403.0059999999999 804.13 426.3929999999999 813.408 453.809 809.297C459.907 808.383 468.885 804.928 473.76 801.62L482.623 795.606L492.159 801.917C520.062 820.3820000000001 568.16 822.095 621.867 806.5350000000001C640.689 801.082 642.347 800.9780000000001 652.67 804.596C660.894 807.4780000000001 669.78 808.117 688.759 807.192C710.08 806.153 716.378 804.8230000000001 729.862 798.513C750.9159999999999 788.6610000000001 765.8399999999999 774.4770000000001 776.4549999999999 754.229C809.9259999999999 690.3810000000001 795.411 604.4110000000001 747.3839999999999 582.041C730.3299999999999 574.099 713.2299999999999 574.2650000000001 701.1239999999999 582.488C682.2149999999999 595.337 678.2369999999999 615.6850000000001 685.7259999999999 661.2640000000001C692.3549999999999 701.589 689.8819999999998 733.0530000000001 678.8519999999999 748.7940000000001C675.9179999999999 752.988 675.4779999999998 750.3990000000001 675.4359999999998 728.3770000000001C675.3679999999998 697.2730000000001 670.7909999999998 678.1800000000001 656.3849999999998 648.9440000000001C645.6429999999998 627.143 645.5019999999997 626.5330000000001 648.0619999999998 613.099C651.8059999999998 593.463 646.0219999999998 574.731 631.3819999999998 559.081C631.3819999999998 559.081 620.4199999999998 547.361 620.4199999999998 547.361L624.1289999999998 538.482C627.6149999999998 530.1389999999999 633.7879999999998 495.12 632.0749999999998 493.4069999999999C631.6559999999998 492.9739999999999 593.5399999999998 530.5659999999999 547.4019999999998 576.9459999999999L547.3989999999998 576.9479999999999z" />
    <glyph glyph-name="dogs-permitted"
      unicode="&#xF133;"
      horiz-adv-x="897" d=" M91.319 2.683C88.059 3.9829999999999 82.891 7.383 79.832 10.2379999999999C66.835 22.372 67.609 -5.018 67.609 443.27V858.3050000000001H81.463C89.143 858.3050000000001 101.46 856.191 109.1 853.563C127.607 847.196 152.3 847.3050000000001 173.458 853.845C193.314 859.984 204.4430000000001 859.94 222.683 853.6500000000001C241.5420000000001 847.1460000000001 268.332 847.155 287.1420000000001 853.671C304.8010000000001 859.789 318.3560000000001 859.791 337.8950000000001 853.678C358.2970000000001 847.2940000000001 382.5630000000001 847.298 400.9470000000001 853.688C418.7150000000001 859.863 434.8970000000001 859.863 452.6650000000001 853.688C471.3740000000001 847.186 495.897 847.245 517.2450000000001 853.849C537.1000000000001 859.988 548.2300000000001 859.944 566.4700000000001 853.654C585.3290000000002 847.1500000000001 612.1180000000002 847.159 630.9290000000001 853.675C648.589 859.794 662.1440000000001 859.7950000000001 681.6830000000001 853.682C702.0280000000001 847.316 726.1000000000001 847.32 744.9680000000001 853.692C754.7110000000001 856.982 763.8910000000001 858.327 773.287 857.841L787.19 857.1220000000001L787.7950000000001 537.639C788.1310000000001 361.9260000000001 787.8180000000001 218.156 787.1030000000001 218.156C786.3910000000001 218.156 778.6540000000001 220.4739999999999 769.9040000000001 223.308C736.1140000000001 234.252 693.6800000000001 228.578 663.8000000000001 209.12C595.849 164.87 582.7310000000001 71.722 636.2950000000001 13.7760000000001L648.998 0.032H525.1990000000001V38.1230000000001C525.1990000000001 76.455 523.9620000000001 83.2840000000001 515.9200000000001 89.46C510.5370000000001 93.5930000000001 362.0370000000001 93.5930000000001 356.6550000000001 89.46C348.6110000000001 83.284 347.3760000000001 76.4540000000001 347.3760000000001 38.1230000000001V0.032L222.3070000000001 0.1800000000001C145.1230000000001 0.2740000000001 94.9700000000001 1.235 91.3120000000001 2.6940000000001zM467.116 166.847C497.516 187.072 520.4399999999999 205.9979999999999 549.1899999999999 234.611C615.0949999999999 300.197 645.8829999999999 360.307 651.938 435.2390000000001C654.982 472.884 642.7429999999999 506.48 616.389 532.839C565.216 584.0120000000001 482.846 579.4370000000001 437.765 522.9190000000001L427.384 509.9050000000001L420.945 518.7320000000001C376.064 580.2940000000001 287.251 585.3280000000001 235.677 529.2340000000002C210.422 501.7670000000001 201.666 474.7600000000001 203.26 429.2600000000001C204.161 403.6490000000001 205.364 396.4080000000002 211.958 377.0050000000001C238.567 298.7250000000002 304.146 228.2460000000001 412.381 161.6000000000001L435.894 147.1220000000002L444.389 152.2530000000002C449.06 155.0750000000002 459.285 161.6430000000002 467.1089999999999 166.8480000000002zM409.126 183.8200000000001C321.352 239.471 258.032 306.8480000000001 233.344 370.8570000000001C220.133 405.1170000000001 216.958 429.7380000000001 221.607 461.8960000000001C229.781 518.4280000000001 282.583 557.916 339.268 549.8890000000001C373.334 545.065 403.682 521.336 418.613 487.85C423.116 477.745 427.339 469.49 427.991 469.505C428.663 469.519 432.2589999999999 477.146 436.0279999999999 486.451C444.6409999999999 507.722 467.3219999999999 531.8430000000001 487.6779999999999 541.38C538.4889999999999 565.185 601.4089999999999 542.687 624.9999999999999 492.276C641.8539999999999 456.26 636.4099999999999 400.511 610.8689999999999 347.577C586.43 296.92 551.9939999999999 255.684 495.5659999999999 209.499C477.4659999999999 194.684 439.5929999999999 168.366 436.3739999999999 168.366C434.801 168.366 422.5379999999999 175.324 409.1239999999999 183.829zM475.396 210.64C488.468 220.399 498.886 228.636 498.55 228.947C498.214 229.256 490.292 227.559 480.948 225.172C449.61 217.167 408.761 216.8480000000001 376.235 224.3540000000001C370.63 225.648 370.999 224.9920000000001 379.461 218.6030000000001C384.717 214.6360000000001 399.1190000000001 205.0110000000001 411.469 197.2140000000001L433.923 183.0360000000001L442.777 187.9670000000001C447.65 190.6790000000001 462.326 200.8820000000001 475.397 210.6410000000001zM475.733 246.5270000000001C491.384 250.389 510.665 262.683 519.697 274.5610000000001C528.045 285.539 533.931 302.284 536.187 321.472C537.565 333.177 537.397 333.6 530.394 336.502C511.525 344.318 497.292 369.285 492.077 403.718C488.965 424.251 490.35 431.4939999999999 501.065 450.87C506.314 460.362 506.717 462.455 503.942 465.803C498.048 472.903 491.603 469.13 483.878 454.056C479.866 446.2320000000001 476.484 439.5500000000001 476.358 439.207C475.753 437.541 440.515 455.124 437.723 458.49C433.428 463.667 423.493 463.384 417.466 457.912C410.689 451.7610000000001 382.267 439.476 381.3040000000001 442.2810000000001C380.901 443.5410000000001 377.305 450.1740000000001 373.379 457.0200000000001C365.966 469.9490000000001 360.112 472.6930000000001 354.461 465.8840000000001C352.015 462.9370000000001 352.861 459.5040000000001 359.2460000000001 446.5400000000001L367.0050000000001 430.7790000000001L364.2830000000001 408.6060000000001C360.6740000000001 379.2280000000001 352.3060000000001 358.6270000000001 339.0060000000001 346.3680000000002C333.3270000000001 341.1350000000002 325.9900000000001 336.1780000000001 322.6950000000001 335.3510000000001C317.0830000000001 333.9430000000001 316.7940000000001 333.1480000000002 318.1110000000001 322.8230000000001C321.3640000000001 297.3360000000002 333.3140000000001 273.7940000000001 349.1050000000002 261.7500000000001C358.1000000000002 254.8890000000001 376.1230000000002 247.3540000000002 391.2320000000002 244.1380000000002C403.8200000000002 241.4580000000002 461.8390000000002 243.0990000000002 475.7330000000002 246.5270000000002zM407.564 267.731C397.165 272.453 390.0610000000001 280.48 390.0610000000001 287.505C390.0610000000001 292.884 397.6330000000001 296.1960000000001 399.1980000000001 291.502C401.4360000000001 284.7969999999999 413.4710000000001 275.049 419.5150000000001 275.049C425.201 275.049 425.624 275.813 425.624 285.998C425.624 294.7829999999999 424.2190000000001 298.549 418.511 305.0479999999999C409.8760000000001 314.8829999999999 409.548 320.8329999999999 417.221 328.503C424.557 335.838 436.788 336.2299999999999 445.461 329.4079999999999C454.173 322.555 453.838 312.377 444.594 303.1349999999999C438.834 297.3759999999999 437.481 294.0259999999999 437.481 285.5349999999999C437.481 277.6439999999999 438.388 275.0479999999999 441.157 275.0479999999999C447.77 275.0479999999999 457.842 281.681 460.679 287.9099999999999C463.663 294.4589999999999 469.395 296.0289999999999 471.385 290.8429999999999C472.057 289.0979999999999 470.982 284.3679999999998 469.046 280.3319999999999C461.474 264.6989999999999 428.93 258.0289999999999 407.564 267.7309999999999zM367.429 351.9980000000001C355.983 363.4440000000001 363.181 386.485 378.206 386.485S400.43 363.4450000000001 388.983 351.9980000000001C381.598 344.6130000000001 374.813 344.6130000000001 367.429 351.9980000000001zM384.532 368.886C385.325 370.943 384.263 374.333 382.173 376.42C378.698 379.897 378.255 379.882 376.8570000000001 376.2389999999999C375.009 371.421 377.1260000000001 365.1489999999999 380.5800000000001 365.1489999999999C381.9640000000001 365.1489999999999 383.7460000000001 366.8319999999999 384.5390000000001 368.8889999999999zM464.641 351.9980000000001C453.195 363.4440000000001 460.393 386.485 475.418 386.485S497.642 363.4450000000001 486.195 351.9980000000001C478.81 344.6130000000001 472.025 344.6130000000001 464.641 351.9980000000001zM481.744 368.886C482.537 370.943 481.475 374.333 479.385 376.42C475.91 379.897 475.467 379.882 474.0690000000001 376.2389999999999C472.2210000000001 371.421 474.3380000000001 365.1489999999999 477.7920000000001 365.1489999999999C479.1760000000001 365.1489999999999 480.9580000000001 366.8319999999999 481.7510000000001 368.8889999999999zM562.85 295.995C599.845 345.899 618.58 407.428 609.692 449.833C593.568 526.752 497.927 552.913 445.37 494.7869999999999L436.409 484.877L449.477 482.905C462.295 480.971 462.724 481.096 471.846 489.452C506.771 521.442 547.48 509.671 584.685 456.827C599.406 435.916 604.262 421.329 603.016 401.762C601.759 382.03 593.0039999999999 369.213 574.103 359.433C561.492 352.908 560.7769999999999 352.058 560.7769999999999 343.601C560.7769999999999 329.918 556.146 299.664 552.444 289.175C550.6229999999999 284.0129999999999 549.52 279.789 549.991 279.789S556.255 287.081 562.86 295.9940000000001zM298.789 304.8490000000001C296.874 313.8870000000001 295.288 325.1500000000001 295.267 329.8770000000001C295.199 347.3330000000001 292.653 353.6170000000001 284.295 357.1090000000001C264.973 365.182 250.332 385.5210000000001 250.23 404.428C250.0950000000001 427.4400000000001 265.644 457.203 290.459 481.4829999999999C322.627 512.959 353.76 515.709 382.632 489.625C391.901 481.251 392.861 480.934 404.2390000000001 482.499C410.7850000000001 483.4 416.1450000000001 485.2860000000001 416.1450000000001 486.691C416.1450000000001 491.98 393.5460000000001 510.614 378.4670000000001 517.759C364.1610000000001 524.538 360.7380000000001 525.183 339.0890000000001 525.183C317.3440000000001 525.183 314.0560000000001 524.558 299.3970000000001 517.612C232.6360000000001 485.987 223.7250000000001 400.102 278.6260000000001 317.4459999999999C288.3470000000001 302.8109999999999 300.5700000000001 287.2349999999999 301.7120000000001 288.027C302.0480000000001 288.242 300.7040000000001 295.81 298.7880000000001 304.848zM176.161 650.252L176.833 678.111H223.951L225.295 622.394L254.932 620.983V753.981H224.11V704.191H176.691V753.981H145.869V689.175C145.869 653.532 146.628 623.611 147.556 622.685S155.15 621.3140000000001 162.374 621.697L175.508 622.393zM363.984 626.1410000000001C384.64 635.491 395.274 650.341 399.325 675.492C402.39 694.5150000000001 398.788 714.918 389.954 728.878C370.466 759.606 323.996 764.9280000000001 296.496 739.581C282.272 726.469 275.654 710.0699999999999 275.509 687.5740000000001C275.307 658.673 287.988 636.386 310.636 625.761C323.92 619.529 349.782 619.713 363.983 626.144zM320.76 650.2629999999999C311.735 657.683 307.072 670.634 307.134 688.1099999999999C307.202 706.78 313.411 721.3059999999999 324.1330000000001 727.842C334.0590000000001 733.894 341.7480000000001 733.894 351.6740000000001 727.842C374.1280000000001 714.152 374.6450000000001 660.117 352.4330000000001 648.633C341.9560000000001 643.2149999999999 328.4920000000001 643.91 320.7600000000001 650.265zM470.131 675.146L470.803 727.899H506.276V753.979H404.0800000000001L405.5180000000001 729.085L439.8970000000001 727.691V676.029C439.8970000000001 647.615 440.6560000000001 623.6089999999999 441.5770000000001 622.683C442.5040000000001 621.7570000000001 449.1720000000001 621.312 456.395 621.6949999999999L469.5290000000001 622.3910000000001zM605.82 634.2470000000001V647.288H551.288V678.111H601.078V701.8199999999999H551.0509999999999L552.4749999999999 729.086L603.4509999999999 730.431V753.98H522.8359999999999V621.2080000000001H605.8169999999999zM707.774 634.2470000000001V647.288H655.613V753.981H627.1610000000001V621.2090000000001H707.7760000000001zM708.957 3.377C634.873 24.3349999999999 611.735 117.183 667.587 169.423C691.268 191.574 726.288 201.109 756.547 193.6420000000001C765.485 191.436 773.768 188.662 774.9540000000001 187.4770000000001C778.2270000000001 184.2030000000001 764.339 165.7170000000001 759.936 167.4870000000001C757.98 168.273 748.782 169.4550000000001 739.496 170.1130000000001C716.677 171.7290000000001 702.074 166.721 685.536 151.605C668.8069999999999 136.316 661.881 120.792 661.804 98.41C661.602 44.0649999999999 717.333 9.14 766.0029999999999 33.0989999999999C784.3499999999999 42.132 795.6569999999999 54.747 803.4279999999999 74.8539999999999C806.6139999999999 83.0989999999999 813.8419999999999 95.324 819.4889999999999 102.021L829.756 114.198L831.6039999999999 107.489C833.708 99.8390000000001 832.074 84.611 827.4169999999999 68.182C820.146 42.6180000000001 795.7289999999999 16.933 768.9849999999999 6.716C752.7609999999999 0.5170000000001 724.6069999999999 -1.05 708.9659999999999 3.374zM725.554 83.055C711.2099999999999 96.077 698.611 109.3119999999999 697.557 112.4689999999999C695.104 119.823 703.444 136.944 710.843 139.732C717.5649999999999 142.264 724.837 138.541 740.276 124.659C746.909 118.698 753.5519999999999 113.821 755.045 113.821S760.953 120.941 764.8589999999999 129.643C775.0519999999999 152.3630000000001 789.2729999999999 171.085 816.0279999999999 197.0060000000001C840.1149999999999 220.3440000000001 848.5459999999999 225.0410000000001 857.7829999999999 220.2650000000001C874.3509999999999 211.6990000000001 897.5169999999999 195.8170000000001 896.7739999999999 193.5340000000001C896.3039999999999 192.0720000000001 889.3499999999999 187.2350000000001 881.3359999999999 182.7850000000001C851.7339999999999 166.3510000000001 818.7739999999999 133.5620000000001 778.6409999999998 80.6270000000001C767.4709999999999 65.8920000000001 761.7849999999999 60.3270000000001 757.4979999999998 59.927C753.0149999999999 59.51 745.4979999999998 64.951 725.5539999999999 83.056zM8.104 867.212C4.112 877.643 -1.358 924.662 0.333 933.977C7.405 972.935 51.253 1003.82 122.152 1019.778C140.244 1023.851 683.98 1025.788 717.98 1021.901C775.588 1015.315 826.8050000000001 992.609 847.5160000000001 964.475C860.1940000000001 947.254 862.9140000000001 933.219 859.541 902.428C856.248 872.373 852.403 860.69 845.8000000000001 860.69C843.34 860.69 834.825 865.908 826.878 872.285S807.3050000000001 885.837 801.0400000000001 888.23C785.739 894.074 760.767 893.555 742.3760000000001 887.011C724.5910000000001 880.683 707.5500000000001 880.685 689.772 887.016C671.1 893.664 647.2420000000001 893.664 628.57 887.016C610.7890000000001 880.684 593.748 880.684 575.966 887.016C557.294 893.664 533.436 893.664 514.764 887.016C496.964 880.678 479.924 880.685 462.16 887.037C443.2560000000001 893.798 417.492 893.798 398.5870000000001 887.037C380.7560000000001 880.66 367.5740000000001 880.711 346.4600000000001 887.239C325.2720000000001 893.7909999999999 303.8050000000001 893.7 284.7810000000001 886.977C266.9680000000001 880.682 249.9270000000001 880.694 232.1770000000001 887.015C223.0230000000001 890.275 212.4240000000001 892.001 201.5760000000001 892.001S180.1290000000001 890.274 170.9750000000001 887.015C154.3570000000001 881.098 136.1630000000001 880.624 121.8540000000001 885.7339999999999C102.5520000000001 892.6279999999999 87.3580000000001 894.379 72.8290000000001 891.385C56.1030000000001 887.938 48.5680000000001 884.136 32.4280000000001 870.999C17.6180000000001 858.944 11.6210000000001 858.011 8.1040000000001 867.211z" />
    <glyph glyph-name="gift"
      unicode="&#xF134;"
      horiz-adv-x="1024" d=" M864 752H695.4C720.1999999999999 774 736 805.2 736 840C736 906.2 679.4 960 609.8 960C568.5999999999999 960 534 940.6 511.9999999999999 905.2C490 940.6 455.4 960 414.2 960C344.6 960 288 906.2 288 840C288 805.2 303.6 774 328.6 752H160C124.6 752 96 723.4 96 688V648C96 643.6 99.6 640 104 640H920C924.4 640 928 643.6 928 648V688C928 723.4 899.4 752 864 752zM609.8 904C647 904 677.1999999999999 875.4 677.1999999999999 840S646.9999999999999 776 609.8 776C572.5999999999999 776 542.4 776 542.4 776C542.4 872 572.6 904 609.8 904zM414.2 904C451.4 904 481.6 872 481.6 776C481.6 776 451.4 776 414.2000000000001 776C377.0000000000001 776 346.8000000000001 804.6 346.8000000000001 840S377 904 414.2 904z M128 572V128C128 92.8 156.8 64 192 64H484V588H144C135.2 588 128 580.8 128 572z M880 588H540V64H832C867.2 64 896 92.8 896 128V572C896 580.8 888.8 588 880 588z" />
    <glyph glyph-name="heart"
      unicode="&#xF135;"
      horiz-adv-x="1024" d=" M704 912C704 912 704 912 704 912C704 912 704 912 704 912C703.4 912 702.6 912 702 912C622.6 912 552.4 870 512 808C471.6 870 401.4 912 322 912C321.4 912 320.6 912 320 912C320 912 320 912 320 912C320 912 320 912 320 912C196.2 910.8 96 810.2 96 686C96 612 128.4 507 191.6 420.6C312 256 512 112 512 112S712 256 832.4 420.6C895.6 507 928 612 928 686C928 810.2 827.8 910.8 704 912z" />
    <glyph glyph-name="help-circle-outline"
      unicode="&#xF136;"
      horiz-adv-x="1024" d=" M512 872C608.2 872 698.6 834.6 766.6 766.6S872 608.2 872 512S834.6 325.4 766.6 257.4S608.2 152 512 152C415.8 152 325.4 189.4 257.4 257.4C189.4 325.4 152 415.8 152 512S189.4 698.6 257.4 766.6C325.4 834.6 415.8 872 512 872M512 928C282.2 928 96 741.8 96 512S282.2 96 512 96C741.8 96 928 282.2000000000001 928 512S741.8 928 512 928L512 928z M513.4 704C588.4 704 640 662.4 640 602.6C640 563 620.8 535.6 583.8 513.8C549 493.6 537.1999999999999 478.8 537.1999999999999 453.2V437.4000000000001H467.8L467.1999999999999 454.6000000000001C463.8 495.8000000000002 478.1999999999999 521.4000000000001 514.4 542.6000000000001C548.1999999999999 562.8000000000002 562.4 575.6000000000001 562.4 600.4000000000001S538.4 643.4000000000001 508.6 643.4000000000001C478.4 643.4000000000001 456.6 623.8000000000002 454.9999999999999 594.2000000000002H384C385.4 658.6 433 704 513.4 704zM460.8 361.2000000000001C460.8 384.2000000000001 480 402.4000000000001 503.6 402.4000000000001C527.4 402.4000000000001 546.6 384.4000000000001 546.6 361.2000000000001S527.4 320 503.6 320C479.8 320 460.8 338 460.8 361.2000000000001z" />
    <glyph glyph-name="help-circle"
      unicode="&#xF137;"
      horiz-adv-x="1024" d=" M512 928C282.2 928 96 741.8 96 512S282.2 96 512 96C741.8 96 928 282.2000000000001 928 512S741.8 928 512 928zM503.4 320C479.8 320 460.6 338 460.6 361.2000000000001C460.6 384.2000000000001 479.8 402.4000000000001 503.4 402.4000000000001C527.1999999999999 402.4000000000001 546.4 384.4000000000001 546.4 361.2000000000001C546.4 338 527.4 320 503.4 320zM583.8 513.8C549 493.6 537.1999999999999 478.8 537.1999999999999 453.2V437.4000000000001H467.8L467.1999999999999 454.6000000000001C463.8 495.8000000000002 478.1999999999999 521.4000000000001 514.4 542.6000000000001C548.1999999999999 562.8000000000002 562.4 575.6000000000001 562.4 600.4000000000001S538.4 643.4000000000001 508.6 643.4000000000001C478.4 643.4000000000001 456.6 623.8000000000002 454.9999999999999 594.2000000000002H384C385.4 658.6000000000001 433 704.2000000000002 513.4 704.2000000000002C588.4 704.2000000000002 640 662.6000000000001 640 602.8000000000002C640 563 620.8 535.6 583.8 513.8z" />
    <glyph glyph-name="home"
      unicode="&#xF138;"
      horiz-adv-x="1024" d=" M517 815.8C514 818.2 510 818.2 507 815.8L195 566.2C193.2 564.6 192 562.4000000000001 192 560V100C192 97.8 193.8 96 196 96H412C414.2 96 416 97.8 416 100V380C416 382.2000000000001 417.8 384 420 384H604C606.2 384 608 382.2000000000001 608 380V100C608 97.8 609.8 96 612 96H828C830.2 96 832 97.8 832 100V560C832 562.4 830.8 564.8 829 566.2L517 815.8z M917.4 615.6L539.4 918.4C531.8 924.6 522 928 512 928C502 928 492.2 924.6 484.6 918.4L320 784.6V869C320 871.2 318.2 873 316 873H196C193.8 873 192 871.2 192 869V684.6L106.6 614.4000000000001C100.4 609.4000000000001 96.4 602 96 594C95.6 586 98.6 578.2 104.2 572.6000000000001C109.4 567.4000000000001 116.4 564.4000000000001 124 564.4000000000001C130.4 564.4000000000001 136.6 566.6000000000001 141.6 570.6000000000001L509.4 866.6000000000001C510.4 867.4000000000001 511.2 867.4000000000001 512 867.4000000000001S513.6 867.2 514.6 866.6000000000001L882.4000000000001 571.8000000000001C887.4000000000001 567.8000000000001 893.6000000000001 565.6000000000001 900.0000000000001 565.6000000000001C907.4 565.6000000000001 914.4 568.4000000000001 919.8 573.8000000000001C925.6 579.4000000000001 928.6 587.2 928.2 595.2C927.6 603.2 923.8 610.6 917.4 615.6z" />
    <glyph glyph-name="information-circle-outline"
      unicode="&#xF139;"
      horiz-adv-x="1024" d=" M470.8 679.6C470.8 702.4000000000001 489.4 719.4000000000001 511.8 719.4000000000001C534.6 719.4000000000001 553.2 702.4000000000001 553.2 679.6S534.6 639.6 511.8000000000001 639.6C489.4 639.6 470.8 656.8 470.8 679.6zM473.6 608.2H550V320H473.6V608.2z M512 872C608.2 872 698.6 834.6 766.6 766.6S872 608.2 872 512S834.6 325.4 766.6 257.4S608.2 152 512 152C415.8 152 325.4 189.4 257.4 257.4C189.4 325.4 152 415.8 152 512S189.4 698.6 257.4 766.6C325.4 834.6 415.8 872 512 872M512 928C282.2 928 96 741.8 96 512S282.2 96 512 96C741.8 96 928 282.2000000000001 928 512S741.8 928 512 928L512 928z" />
    <glyph glyph-name="information-circle"
      unicode="&#xF13A;"
      horiz-adv-x="1024" d=" M512 928C282.2 928 96 741.8 96 512S282.2 96 512 96C741.8 96 928 282.2000000000001 928 512S741.8 928 512 928zM550 320H473.6V608.2H550V320zM511.8 639.6C489.2 639.6 470.8 656.8 470.8 679.6S489.4 719.4000000000001 511.8 719.4000000000001C534.6 719.4000000000001 553.2 702.4000000000001 553.2 679.6S534.6 639.6 511.8 639.6z" />
    <glyph glyph-name="information"
      unicode="&#xF13B;"
      horiz-adv-x="1024" d=" M470.8 672C470.8 694.8 489.4 711.8 511.8 711.8C534.6 711.8 553.2 694.8 553.2 672S534.6 632 511.8000000000001 632C489.4 631.8 470.8 649.2 470.8 672zM473.6 600.4H550V312.2000000000001H473.6V600.4z" />
    <glyph glyph-name="laptop"
      unicode="&#xF13C;"
      horiz-adv-x="1024" d=" M896 289V765.8C896 784.6 880.2 800 861.6 800H162.4C143.8 800 128 784.8 128 765.8V289H31.8L31.8 289C31.8 269.2000000000001 51.6 251.4 69.6 243.6C91.4 234.4 128 224 168 224H856C896 224 932.4 233 952.6 241.6C971.6 249.6 992.2 268.4 992.2 289L992.2 289H896zM512 784C516.4 784 520 780.4 520 776C520 771.6 516.4 768 512 768S504 771.6 504 776C504 780.4 507.6 784 512 784zM164 751.6H860C862.2 751.6 864 749.8 864 747.6V325C864 322.8 862.2 321 860 321H164C161.8 321 160 322.8 160 325V747.6C160 750 161.8 751.6 164 751.6zM596.6 273C596.6 273 438 273 427.4000000000001 273C417.0000000000001 273 408.0000000000001 285 408.0000000000001 288H616C616 285 610 273 596.6 273z" />
    </font>
</defs>
</svg>
