<svg id="Layer_1" data-name="Layer 1" xmlns="http://www.w3.org/2000/svg" viewBox="0 0 80 80"><title>Style2</title><path d="M46.62,77.38H5.84V20.91H74.05V50.07a1.31,1.31,0,1,0,2.62,0V6.53a1.31,1.31,0,0,0-1.31-1.31H67.29V1.29A1.31,1.31,0,0,0,66,0H56.84a1.3,1.3,0,0,0-1.31,1.29s0,0,0,0V5.23H24.36V1.29A1.31,1.31,0,0,0,23,0H13.91A1.3,1.3,0,0,0,12.6,1.29s0,0,0,0V5.23H4.53a1.31,1.31,0,0,0-1.31,1.3V78.69A1.31,1.31,0,0,0,4.53,80H46.62A1.31,1.31,0,1,0,46.62,77.38ZM58.14,2.62h6.53v7.83H58.14V2.62Zm-42.93,0h6.53v7.83H15.21V2.62ZM5.84,7.84H12.6v3.92a1.3,1.3,0,0,0,1.29,1.31H23a1.31,1.31,0,0,0,1.31-1.29V7.84H55.53v3.92a1.3,1.3,0,0,0,1.29,1.31H66a1.31,1.31,0,0,0,1.31-1.29V7.84h6.76V18.29H5.84V7.84Z"/><rect x="28.57" y="44.9" width="22.3" height="8.47" rx="1.06" ry="1.06"/><rect x="15.55" y="44.9" width="8.47" height="8.47" rx="1.06" ry="1.06"/><rect x="42.4" y="58.99" width="8.47" height="8.47" rx="1.06" ry="1.06"/><rect x="55.39" y="44.9" width="8.47" height="8.47" rx="1.06" ry="1.06"/><rect x="15.55" y="58.99" width="21.43" height="8.47" rx="1.06" ry="1.06"/><rect x="55.39" y="30.82" width="8.47" height="8.47" rx="1.06" ry="1.06"/><rect x="15.55" y="30.82" width="35.36" height="8.47" rx="1.06" ry="1.06"/><path d="M76.78,64V63.91h0V63.8h0A1.31,1.31,0,0,0,76.26,63l-9.54-6.55A1.1,1.1,0,0,0,66,56.06H65.89a1.1,1.1,0,0,0-.65.28l-9.29,6.54h0L55.76,63h0a1.38,1.38,0,0,0-.36.94v14.7h0v0.21h0v0.09h0V79h0v0.11h0V79.2h0a1.15,1.15,0,0,0,.85.57H75.93a1.33,1.33,0,0,0,.51-0.95V64h0.34ZM74.43,77.38h-5.6v-4.8a1,1,0,0,0-.94-1.06H64.3a1,1,0,0,0-1,1s0,0,0,.06v4.8H57.74V64.71L66,58.91l8.45,5.81V77.38h0Z"/></svg>