<svg width="128" height="128" version="1.1" viewBox="0 0 128 128" xmlns="http://www.w3.org/2000/svg">
  <path d="m128 64c0 16.974-6.7428 33.253-18.745 45.255-12.002 12.002-28.281 18.745-45.255 18.745s-33.253-6.7428-45.255-18.745c-12.002-12.002-18.745-28.281-18.745-45.255s6.7428-33.253 18.745-45.255c12.002-12.002 28.281-18.745 45.255-18.745 16.974-2.7296e-15 33.253 6.7428 45.255 18.745 12.002 12.002 18.745 28.281 18.745 45.255" fill="#ececec" style="paint-order:stroke markers fill"/>
  <path d="m66.146 73.41 6.4702-6.4702c0.5882-0.5882 0.5882-1.5559 0-2.1441s-1.5559-0.5882-2.1441 0l-6.4702 6.4702-6.4702-6.4702c-0.5882-0.5882-1.5559-0.5882-2.1441 0-0.2941 0.2941-0.4459 0.68308-0.4459 1.072 0 0.38898 0.1518 0.77795 0.4459 1.0721l6.4702 6.4702-6.4702 6.4702c-0.2941 0.2941-0.4459 0.68307-0.4459 1.072 0 0.38898 0.1518 0.77795 0.4459 1.072 0.5882 0.5882 1.5559 0.5882 2.1441 0l6.4702-6.4702 6.4702 6.4702c0.5882 0.5882 1.5559 0.5882 2.1441 0 0.5882-0.5882 0.5882-1.5559 0-2.1441z" fill="#4d4d4d" stroke-width=".094872"/>
  <g transform="matrix(.90347 0 0 .90347 6.1771 6.1777)">
    <path d="m98.731 30.923h-8.2692v4.9615c0 0.90962-0.74423 1.6538-1.6538 1.6538h-3.3077c-0.90962 0-1.6538-0.74423-1.6538-1.6538v-4.9615h-39.692v4.9615c0 0.90962-0.74423 1.6538-1.6538 1.6538h-3.3077c-0.90962 0-1.6538-0.74423-1.6538-1.6538v-4.9615h-8.2692c-4.5481 0-8.2692 3.7212-8.2692 8.2692v56.231c0 4.5481 3.7212 8.2692 8.2692 8.2692h69.462c4.5481 0 8.2692-3.7212 8.2692-8.2692v-56.231c0-4.5481-3.7212-8.2692-8.2692-8.2692m1.6538 62.019c0 2.274-1.8606 4.1346-4.1346 4.1346h-64.5c-2.274 0-4.1346-1.8606-4.1346-4.1346v-37.212c0-0.90958 0.74423-1.6538 1.6538-1.6538h69.462c0.90962 0 1.6538 0.74426 1.6538 1.6538v37.212" fill="#4d4d4d"/>
    <path d="m44.154 25.962c0-0.90962-0.74423-1.6538-1.6538-1.6538h-3.3077c-0.90962 0-1.6538 0.74423-1.6538 1.6538v4.9615h6.6154v-4.9615" fill="#999"/>
    <path d="m90.462 25.962c0-0.90962-0.74423-1.6538-1.6538-1.6538h-3.3077c-0.90962 0-1.6538 0.74423-1.6538 1.6538v4.9615h6.6154v-4.9615" fill="#999"/>
  </g>
</svg>
