<svg width="128" height="128" version="1.1" viewBox="0 0 128 128" xmlns="http://www.w3.org/2000/svg">
  <path d="m128 64c0 16.974-6.7428 33.253-18.745 45.255-12.002 12.002-28.281 18.745-45.255 18.745s-33.253-6.7428-45.255-18.745c-12.002-12.002-18.745-28.281-18.745-45.255s6.7428-33.253 18.745-45.255c12.002-12.002 28.281-18.745 45.255-18.745 16.974-2.7296e-15 33.253 6.7428 45.255 18.745 12.002 12.002 18.745 28.281 18.745 45.255" fill="#f3f8ff" style="paint-order:stroke markers fill"/>
  <g transform="matrix(.90347 0 0 .90347 6.1771 6.1777)">
    <path d="m98.731 30.923h-8.2692v4.9615c0 0.90962-0.74423 1.6538-1.6538 1.6538h-3.3077c-0.90962 0-1.6538-0.74423-1.6538-1.6538v-4.9615h-39.692v4.9615c0 0.90962-0.74423 1.6538-1.6538 1.6538h-3.3077c-0.90962 0-1.6538-0.74423-1.6538-1.6538v-4.9615h-8.2692c-4.5481 0-8.2692 3.7212-8.2692 8.2692v56.231c0 4.5481 3.7212 8.2692 8.2692 8.2692h69.462c4.5481 0 8.2692-3.7212 8.2692-8.2692v-56.231c0-4.5481-3.7212-8.2692-8.2692-8.2692m1.6538 62.019c0 2.274-1.8606 4.1346-4.1346 4.1346h-64.5c-2.274 0-4.1346-1.8606-4.1346-4.1346v-37.212c0-0.90958 0.74423-1.6538 1.6538-1.6538h69.462c0.90962 0 1.6538 0.74426 1.6538 1.6538v37.212" fill="#2a7fff"/>
    <path d="m44.154 25.962c0-0.90962-0.74423-1.6538-1.6538-1.6538h-3.3077c-0.90962 0-1.6538 0.74423-1.6538 1.6538v4.9615h6.6154v-4.9615" fill="#80b3ff"/>
    <path d="m90.462 25.962c0-0.90962-0.74423-1.6538-1.6538-1.6538h-3.3077c-0.90962 0-1.6538 0.74423-1.6538 1.6538v4.9615h6.6154v-4.9615" fill="#80b3ff"/>
  </g>
  <path d="m69.943 77.625h-1.2761l-0.47914-0.40002c1.516-1.8398 2.4735-4.1602 2.4735-6.8-7.4e-5 -5.7602-4.6275-10.4-10.371-10.4-5.6644 0-10.291 4.6398-10.291 10.4 0 5.7602 4.6267 10.4 10.371 10.4 2.5529 0 4.946-0.9601 6.7806-2.4798l0.47841 0.4001v1.2798l7.9773 7.9999 2.3931-2.4zm-9.5728 0c-3.9887 0-7.1796-3.2001-7.1796-7.2 0-4.0001 3.1909-7.1999 7.1796-7.1999 3.9885 0 7.1795 3.1999 7.1795 7.1999 0 3.9999-3.191 7.2-7.1795 7.2z" fill="#535d6c" stroke-width=".072917"/>
</svg>
