<svg width="512" height="512" version="1.1" viewBox="0 0 512 512" xmlns="http://www.w3.org/2000/svg">
  <path d="m0 0h512v512h-512z" fill="#f7f7f7" style="paint-order:stroke markers fill"/>
  <path d="m376.62 384.57c-6.3334-2.9624-9.5785-7.7975-10.013-14.92-0.34727-5.6985 1.646-10.339 6.0062-13.984l3.0257-2.5291-0.0491-15.091-2.9624-1.8779c-1.6289-1.0328-3.7355-3.0467-4.6808-4.4753l-1.7189-2.5973-1.3262 1.8593c-3.6165 5.0702-8.4114 7.9154-14.377 8.531-6.5451 0.6755-14.256-2.8995-17.47-8.0996l-1.4492-2.3449-1.3458 1.8862c-4.2092 5.8998-8.9995 8.3994-16.097 8.3994-7.0612 0-11.883-2.5002-16.041-8.3176l-1.2899-1.8048-2.2889 3.0932c-4.435 5.993-12.945 8.6431-20.65 6.429-3.2214-0.92582-4.5509-1.8024-7.8839-5.1982l-4.009-4.0846-2.2038 2.9736c-4.3958 5.9312-12.879 8.5304-20.556 6.2991-3.1481-0.91517-4.5252-1.8278-7.8026-5.1702l-3.9799-4.059-1.78 2.5002c-3.1794 4.4656-9.5442 7.6825-15.217 7.6905-5.4322 0.01-9.4183-1.7804-13.696-6.1423l-3.9689-4.0478-1.7937 2.5194c-0.98651 1.3856-3.0992 3.3114-4.6949 4.2795l-2.9012 1.7602-0.0412 9.3252 2.9392 2.4085c1.6166 1.3246 3.7502 3.788 4.7414 5.4743 1.5341 2.6098 1.8021 3.795 1.8021 7.9703 0 5.6573-1.2154 8.7363-4.9049 12.425-4.6939 4.6939-11.436 6.3174-17.657 4.251-13.466-4.4725-16.095-23.037-4.3529-30.731 1.6356-1.0716 1.7366-1.4367 1.7366-6.2779 0-5.0039-0.0498-5.1658-1.887-6.116-2.9221-1.5111-7.084-6.6664-8.2735-10.248-0.68398-2.0593-0.96638-4.481-0.77552-6.6515 0.16505-1.8771 1.4201-14.904 2.789-28.949l2.489-25.536-8.0298-45.748c-4.4163-25.161-8.1636-45.968-8.3273-46.238-0.16358-0.26977-6.858-0.49049-14.877-0.49049-14.045 0-14.658-0.0539-16.735-1.4714-6.3952-4.3654-5.878-14.522 0.90378-17.74 1.9144-0.90842 5.158-1.0616 22.479-1.0616 19.914 0 20.276 0.0246 22.403 1.4714 4.3996 2.9944 4.2147 2.2904 11.479 43.708 3.7483 21.372 6.9702 39.519 7.1601 40.329 0.34463 1.4704 0.35581 1.4714 14.557 1.469l14.212-3e-3 -2.058-1.2549c-2.6521-1.6171-3.7211-4.8671-3.3773-10.267 0.22317-3.5045 0.56387-4.4996 2.0488-5.9844l1.7812-1.7811h152.97l1.8007 1.8007c1.5745 1.5745 1.8312 2.4045 2.0434 6.6069 0.27909 5.5298-0.82597 8.4852-3.6532 9.7684-1.44 0.65388 0.8004 0.8452 13.07 1.1161l14.808 0.32715 1.9558 1.8753c1.0757 1.0314 2.2593 2.65 2.6302 3.5969 0.37081 0.94686 2.6034 15.848 4.9608 33.113 2.3576 17.265 4.8371 33.609 5.5101 36.321 2.3097 9.3056-0.87186 17.474-8.5984 22.075l-1.7984 1.071v15.307l2.219 1.3714c4.3904 2.7135 7.591 8.6454 7.591 14.07 0 12.489-13.302 21.071-24.524 15.823z" fill="#9cb4b0" fill-opacity=".20197"/>
  <path d="m216.72 212.89c0-4.0221 1.8648-13.637 3.688-19.016 5.3738-15.853 17.628-29.663 33.262-37.486 4.8013-2.4023 13.185-4.8945 19.572-5.8179l5.6058-0.81052v-3.4508c0-2.9776-0.22857-3.6007-1.6683-4.544-5.6744-3.718-4.3502-12.992 2.1801-15.267 2.4259-0.84508 3.0903-0.84508 5.516 0 6.5302 2.2749 7.8547 11.548 2.1802 15.267-1.4396 0.94326-1.6684 1.5663-1.6684 4.544v3.4508l5.6058 0.81052c28.65 4.1424 50.53 25.432 55.513 54.017 0.55367 3.1749 1.0067 6.9107 1.0067 8.3027v2.5303h-130.8z" fill="#9cb4b0" fill-opacity=".37438"/>
</svg>
