<svg version="1.1" xmlns="http://www.w3.org/2000/svg" width="897" height="1024" viewBox="0 0 897 1024">
	<path d="M91.319 1021.317c-3.26-1.3-8.428-4.7-11.487-7.555-12.997-12.134-12.223 15.256-12.223-433.032v-415.035h13.854c7.68 0 19.997 2.114 27.637 4.742 18.507 6.367 43.2 6.258 64.358-0.282 19.856-6.139 30.985-6.095 49.225 0.195 18.859 6.504 45.649 6.495 64.459-0.021 17.659-6.118 31.214-6.12 50.753-0.007 20.402 6.384 44.668 6.38 63.052-0.010 17.768-6.175 33.95-6.175 51.718 0 18.709 6.502 43.232 6.443 64.58-0.161 19.855-6.139 30.985-6.095 49.225 0.195 18.859 6.504 45.648 6.495 64.459-0.021 17.66-6.119 31.215-6.12 50.754-0.007 20.345 6.366 44.417 6.362 63.285-0.010 9.743-3.29 18.923-4.635 28.319-4.149l13.903 0.719 0.605 319.483c0.336 175.713 0.023 319.483-0.692 319.483-0.712 0-8.449-2.318-17.199-5.152-33.79-10.944-76.224-5.27-106.104 14.188-67.951 44.25-81.069 137.398-27.505 195.344l12.703 13.744h-123.799v-38.091c0-38.332-1.237-45.161-9.279-51.337-5.383-4.133-153.883-4.133-159.265 0-8.044 6.176-9.279 13.006-9.279 51.337v38.091l-125.069-0.148c-77.184-0.094-127.337-1.055-130.995-2.514zM467.116 857.153c30.4-20.225 53.324-39.151 82.074-67.764 65.905-65.586 96.693-125.696 102.748-200.628 3.044-37.645-9.195-71.241-35.549-97.6-51.173-51.173-133.543-46.598-178.624 9.92l-10.381 13.014-6.439-8.827c-44.881-61.562-133.694-66.596-185.268-10.502-25.255 27.467-34.011 54.474-32.417 99.974 0.901 25.611 2.104 32.852 8.698 52.255 26.609 78.28 92.188 148.759 200.423 215.405l23.513 14.478 8.495-5.131c4.671-2.822 14.896-9.39 22.72-14.595zM409.126 840.18c-87.774-55.651-151.094-123.028-175.782-187.037-13.211-34.26-16.386-58.881-11.737-91.039 8.174-56.532 60.976-96.020 117.661-87.993 34.066 4.824 64.414 28.553 79.345 62.039 4.503 10.105 8.726 18.36 9.378 18.345 0.672-0.014 4.268-7.641 8.037-16.946 8.613-21.271 31.294-45.392 51.65-54.929 50.811-23.805 113.731-1.307 137.322 49.104 16.854 36.016 11.41 91.765-14.131 144.699-24.439 50.657-58.875 91.893-115.303 138.078-18.1 14.815-55.973 41.133-59.192 41.133-1.573 0-13.836-6.958-27.25-15.463zM475.396 813.36c13.072-9.759 23.49-17.996 23.154-18.307-0.336-0.309-8.258 1.388-17.602 3.775-31.338 8.005-72.187 8.324-104.713 0.818-5.605-1.294-5.236-0.638 3.226 5.751 5.256 3.967 19.658 13.592 32.008 21.389l22.454 14.178 8.854-4.931c4.873-2.712 19.549-12.915 32.62-22.674zM475.733 777.473c15.651-3.862 34.932-16.156 43.964-28.034 8.348-10.978 14.234-27.723 16.49-46.911 1.378-11.705 1.21-12.128-5.793-15.030-18.869-7.816-33.102-32.783-38.317-67.216-3.112-20.533-1.727-27.776 8.988-47.152 5.249-9.492 5.652-11.585 2.877-14.933-5.894-7.1-12.339-3.327-20.064 11.747-4.012 7.824-7.394 14.506-7.52 14.849-0.605 1.666-35.843-15.917-38.635-19.283-4.295-5.177-14.23-4.894-20.257 0.578-6.777 6.151-35.199 18.436-36.162 15.631-0.403-1.26-3.999-7.893-7.925-14.739-7.413-12.929-13.267-15.673-18.918-8.864-2.446 2.947-1.6 6.38 4.785 19.344l7.759 15.761-2.722 22.173c-3.609 29.378-11.977 49.979-25.277 62.238-5.679 5.233-13.016 10.19-16.311 11.017-5.612 1.408-5.901 2.203-4.584 12.528 3.253 25.487 15.203 49.029 30.994 61.073 8.995 6.861 27.018 14.396 42.127 17.612 12.588 2.68 70.607 1.039 84.501-2.389zM407.564 756.269c-10.399-4.722-17.503-12.749-17.503-19.774 0-5.379 7.572-8.691 9.137-3.997 2.238 6.705 14.273 16.453 20.317 16.453 5.686 0 6.109-0.764 6.109-10.949 0-8.785-1.405-12.551-7.113-19.050-8.635-9.835-8.963-15.785-1.29-23.455 7.336-7.335 19.567-7.727 28.24-0.905 8.712 6.853 8.377 17.031-0.867 26.273-5.76 5.759-7.113 9.109-7.113 17.6 0 7.891 0.907 10.487 3.676 10.487 6.613 0 16.685-6.633 19.522-12.862 2.984-6.549 8.716-8.119 10.706-2.933 0.672 1.745-0.403 6.475-2.339 10.511-7.572 15.633-40.116 22.303-61.482 12.601zM367.429 672.002c-11.446-11.446-4.248-34.487 10.777-34.487s22.224 23.040 10.777 34.487c-7.385 7.385-14.17 7.385-21.554 0zM384.532 655.114c0.793-2.057-0.269-5.447-2.359-7.534-3.475-3.477-3.918-3.462-5.316 0.181-1.848 4.818 0.269 11.090 3.723 11.090 1.384 0 3.166-1.683 3.959-3.74zM464.641 672.002c-11.446-11.446-4.248-34.487 10.777-34.487s22.224 23.040 10.777 34.487c-7.385 7.385-14.17 7.385-21.554 0zM481.744 655.114c0.793-2.057-0.269-5.447-2.359-7.534-3.475-3.477-3.918-3.462-5.316 0.181-1.848 4.818 0.269 11.090 3.723 11.090 1.384 0 3.166-1.683 3.959-3.74zM562.85 728.005c36.995-49.904 55.73-111.433 46.842-153.838-16.124-76.919-111.765-103.080-164.322-44.954l-8.961 9.91 13.068 1.972c12.818 1.934 13.247 1.809 22.369-6.547 34.925-31.99 75.634-20.219 112.839 32.625 14.721 20.911 19.577 35.498 18.331 55.065-1.257 19.732-10.012 32.549-28.913 42.329-12.611 6.525-13.326 7.375-13.326 15.832 0 13.683-4.631 43.937-8.333 54.426-1.821 5.162-2.924 9.386-2.453 9.386s6.264-7.292 12.869-16.205zM298.789 719.151c-1.915-9.038-3.501-20.301-3.522-25.028-0.068-17.456-2.614-23.74-10.972-27.232-19.322-8.073-33.963-28.412-34.065-47.319-0.135-23.012 15.414-52.775 40.229-77.055 32.168-31.476 63.301-34.226 92.173-8.142 9.269 8.374 10.229 8.691 21.607 7.126 6.546-0.901 11.906-2.787 11.906-4.192 0-5.289-22.599-23.923-37.678-31.068-14.306-6.779-17.729-7.424-39.378-7.424-21.745 0-25.033 0.625-39.692 7.571-66.761 31.625-75.672 117.51-20.771 200.166 9.721 14.635 21.944 30.211 23.086 29.419 0.336-0.215-1.008-7.783-2.924-16.821zM176.161 373.748l0.672-27.859h47.118l1.344 55.717 29.637 1.411v-132.998h-30.822v49.79h-47.419v-49.79h-30.822v64.806c0 35.643 0.759 65.564 1.687 66.49s7.594 1.371 14.818 0.988l13.134-0.696zM363.984 397.859c20.656-9.35 31.29-24.2 35.341-49.351 3.065-19.023-0.537-39.426-9.371-53.386-19.488-30.728-65.958-36.050-93.458-10.703-14.224 13.112-20.842 29.511-20.987 52.007-0.202 28.901 12.479 51.188 35.127 61.813 13.284 6.232 39.146 6.048 53.347-0.383zM320.76 373.737c-9.025-7.42-13.688-20.371-13.626-37.847 0.068-18.67 6.277-33.196 16.999-39.732 9.926-6.052 17.615-6.052 27.541 0 22.454 13.69 22.971 67.725 0.759 79.209-10.477 5.418-23.941 4.723-31.673-1.632zM470.131 348.854l0.672-52.753h35.473v-26.080h-102.196l1.438 24.894 34.379 1.394v51.662c0 28.414 0.759 52.42 1.68 53.346 0.927 0.926 7.595 1.371 14.818 0.988l13.134-0.696zM605.82 389.753v-13.041h-54.532v-30.823h49.79v-23.709h-50.027l1.424-27.266 50.976-1.345v-23.549h-80.615v132.772h82.981zM707.774 389.753v-13.041h-52.161v-106.693h-28.452v132.772h80.615zM708.957 1020.623c-74.084-20.958-97.222-113.806-41.37-166.046 23.681-22.151 58.701-31.686 88.96-24.219 8.938 2.206 17.221 4.98 18.407 6.165 3.273 3.274-10.615 21.76-15.018 19.99-1.956-0.786-11.154-1.968-20.44-2.626-22.819-1.616-37.422 3.392-53.96 18.508-16.729 15.289-23.655 30.813-23.732 53.195-0.202 54.345 55.529 89.27 104.199 65.311 18.347-9.033 29.654-21.648 37.425-41.755 3.186-8.245 10.414-20.47 16.061-27.167l10.267-12.177 1.848 6.709c2.104 7.65 0.47 22.878-4.187 39.307-7.271 25.564-31.688 51.249-58.432 61.466-16.224 6.199-44.378 7.766-60.019 3.342zM725.554 940.945c-14.344-13.022-26.943-26.257-27.997-29.414-2.453-7.354 5.887-24.475 13.286-27.263 6.722-2.532 13.994 1.191 29.433 15.073 6.633 5.961 13.276 10.838 14.769 10.838s5.908-7.12 9.814-15.822c10.193-22.72 24.414-41.442 51.169-67.363 24.087-23.338 32.518-28.035 41.755-23.259 16.568 8.566 39.734 24.448 38.991 26.731-0.47 1.462-7.424 6.299-15.438 10.749-29.602 16.434-62.562 49.223-102.695 102.158-11.17 14.735-16.856 20.3-21.143 20.7-4.483 0.417-12-5.024-31.944-23.129zM8.104 156.788c-3.992-10.431-9.462-57.45-7.771-66.765 7.072-38.958 50.92-69.843 121.819-85.801 18.092-4.073 561.828-6.010 595.828-2.123 57.608 6.586 108.825 29.292 129.536 57.426 12.678 17.221 15.398 31.256 12.025 62.047-3.293 30.055-7.138 41.738-13.741 41.738-2.46 0-10.975-5.218-18.922-11.595s-19.573-13.552-25.838-15.945c-15.301-5.844-40.273-5.325-58.664 1.219-17.785 6.328-34.826 6.326-52.604-0.005-18.672-6.648-42.53-6.648-61.202 0-17.781 6.332-34.822 6.332-52.604 0-18.672-6.648-42.53-6.648-61.202 0-17.8 6.338-34.84 6.331-52.604-0.021-18.904-6.761-44.668-6.761-63.573 0-17.831 6.377-31.013 6.326-52.127-0.202-21.188-6.552-42.655-6.461-61.679 0.262-17.813 6.295-34.854 6.283-52.604-0.038-9.154-3.26-19.753-4.986-30.601-4.986s-21.447 1.727-30.601 4.986c-16.618 5.917-34.812 6.391-49.121 1.281-19.302-6.894-34.496-8.645-49.025-5.651-16.726 3.447-24.261 7.249-40.401 20.386-14.81 12.055-20.807 12.988-24.324 3.788z"></path>
</svg>
