<svg version="1.1" xmlns="http://www.w3.org/2000/svg" width="1024" height="1024" viewBox="0 0 1024 1024">
	<path d="M467.665 1022.833c-3.388-0.49-16.141-2.112-28.34-3.605-12.197-1.493-36.662-6.4-54.364-10.905-237.703-60.486-402.558-289.021-383.476-531.615 9.958-126.623 61.028-238.104 149.319-325.959 123.917-123.304 294.88-174.841 464.678-140.073 40.125 8.216 74.507 19.627 111.654 37.057 166.571 78.163 276.388 232.971 295.129 416.037 3.583 34.977 1.802 95.053-3.828 129.375-17.506 106.68-67.611 204.265-144.223 280.871-83.591 83.591-190.831 134.886-309.214 147.897-20.826 2.289-83.735 2.882-97.336 0.917l-0.001 0.002zM567.624 932.097c49.106-6.523 99.082-22.283 139.075-43.855 17.663-9.527 51.706-31.314 63.452-40.607l5.539-4.383-582.789-582.721s-15.312 21.531-15.312 21.531c-116.931 164.424-98.024 388.965 44.765 531.751 70.377 70.377 149.651 107.557 256.399 120.243 19.114 2.273 64.539 1.269 88.868-1.962l0.004 0.004zM353.13 800.355c-2.682-1.047-5.497-4.565-6.266-7.818-1.25-5.292-2.424-5.787-11.147-4.7-20.921 2.605-49.321 1.010-63.516-3.567-35.649-11.497-56.436-47.916-55.64-97.487l0.209-13.554 2.906 16.017c7.233 39.895 31.56 56.47 72.868 49.648 9.123-1.507 20.519-4.382 25.325-6.39l8.738-3.651-1.215-26.58c-2.627-57.43 13.988-85.338 69.258-116.342 13.107-7.352 30.357-19.273 38.332-26.491s15.442-13.123 16.591-13.123c1.153 0 40.619 38.541 87.712 85.648l85.618 85.648v13.996c0 18.837 2.983 25.483 13.721 30.58 11.106 5.27 16.392 15.948 12.881 26.019-3.933 11.272-18.998 13.742-62.95 10.32l-20.33-1.583v-83.282l-26.644 28.569 8.010 9.857c10.677 13.138 13.705 19.243 13.705 27.629 0 9.966-6.084 17.365-16.706 20.315-10.688 2.969-183.951 3.261-191.466 0.321l0.007 0.002zM860.319 748.209c48.074-74.632 70.674-154.83 67.307-238.852-1.628-40.63-4.017-57.704-12.849-91.787-41.15-158.829-175.839-280.433-337.45-304.685-105.795-15.872-214.781 9.845-300.247 70.847l-11.927 8.513s289.157 289.164 289.157 289.164c159.033 159.041 289.709 289.157 290.389 289.149 0.699-0.007 7.711-10.063 15.624-22.348l-0.003-0.001zM547.401 447.055c-93.261-93.752-88.899-87.87-101.675-136.875l-6.86-26.302-4.464 8.625c-2.459 4.744-5.12 14.471-5.931 21.616l-1.46 12.991s-32.87-32.957-32.87-32.957l-32.87-32.957 16.484-16.322c25.251-25.004 48.638-34.282 76.054-30.171 6.098 0.914 15.076 4.369 19.951 7.677l8.863 6.014 9.536-6.311c27.903-18.465 76.001-20.178 129.708-4.618 18.822 5.453 20.48 5.557 30.803 1.939 8.224-2.882 17.11-3.521 36.089-2.596 21.321 1.039 27.619 2.369 41.103 8.679 21.054 9.852 35.978 24.036 46.593 44.284 33.471 63.848 18.956 149.818-29.071 172.188-17.054 7.942-34.154 7.776-46.26-0.447-18.909-12.849-22.887-33.197-15.398-78.776 6.629-40.325 4.156-71.789-6.874-87.53-2.934-4.194-3.374-1.605-3.416 20.417-0.068 31.104-4.645 50.197-19.051 79.433-10.742 21.801-10.883 22.411-8.323 35.845 3.744 19.636-2.040 38.368-16.68 54.018 0 0-10.962 11.72-10.962 11.72l3.709 8.879c3.486 8.343 9.659 43.362 7.946 45.075-0.419 0.433-38.535-37.159-84.673-83.539l-0.003-0.002z"></path>
</svg>
