<svg version="1.1" xmlns="http://www.w3.org/2000/svg" width="1026" height="1024" viewBox="0 0 1026 1024">
	<path d="M96.443 1019.746c-43.287-11.638-81.518-52.039-92.231-97.458-5.67-24.049-5.589-797.074 0.086-821.166 10.942-46.42 49.161-85.079 96.231-97.337 12.472-3.249 68.137-3.755 413.015-3.755 442.016 0 412.667-1.104 444.554 16.727 35.506 19.856 60.82 57.36 66.149 98.004 1.776 13.547 2.396 148.528 1.889 411-0.718 371.392-0.986 391.514-5.385 404.515-14.987 44.306-50.557 78.495-93.678 90.041-19.578 5.243-811.014 4.701-830.636-0.568zM924.579 957.302c15.532-7.248 29.27-22.091 35.575-38.436 4.605-11.939 4.769-25.983 4.769-408.242v-395.87l-5.309-11.475c-7.375-15.94-18.549-27.904-32.91-35.239l-12.211-6.237h-804.347l-10.409 5.568c-5.725 3.062-15.001 10.784-20.613 17.16-19.564 22.226-18.147-11.171-18.147 427.713 0 386.006 0.086 393.045 5.019 406.219 5.94 15.877 21.545 32.178 37.847 39.537 11.25 5.078 14.742 5.122 409.742 5.153l398.393 0.030 12.607-5.883zM412.72 902.996c-11.669-5.385-19.962-13.671-23.786-23.765-1.683-4.443-2.689-34.866-2.689-81.321v-74.22h-27.737v74.51c0 60.486-0.695 75.851-3.692 81.647-13.141 25.412-56.578 32.672-81.541 13.631-15.379-11.731-15.625-13.563-15.625-116.754v-93.375l-8.195-0.055c-18.804-0.127-40.457-16.754-43.532-33.428-0.823-4.466-1.153-64.854-0.731-134.194l0.767-126.073 6.952-14.157c12.172-24.787 46.115-52.663 64.123-52.663 3.183 0 11.186 4.143 17.785 9.206 24.869 19.082 53.122 27.433 86.086 25.446 26.159-1.577 44.831-8.139 67.688-23.787l16.495-11.293 11.082 4.232c23.031 8.796 46.837 33.393 55.166 57.001 5.626 15.945 5.448 263.76-0.198 275.662-5.148 10.85-16.225 18.697-31.518 22.33l-12.512 2.972v93.791c0 60.317-0.96 96.329-2.689 100.89-6.513 17.189-25.378 28.42-47.74 28.42-8.159 0-18.020-1.916-23.954-4.655zM446.877 778.537c0.002-48.885 0.695-98.685 1.542-110.671l1.539-21.788 9.117-1.508c5.015-0.829 15.074-1.521 22.355-1.536l13.238-0.027v-122.459c0-85.306-0.856-124.126-2.82-127.967-1.551-3.029-6.779-9.651-11.617-14.716l-8.797-9.209-19.271 9.9c-10.599 5.445-28.861 12.28-40.581 15.19-40.182 9.975-87.935 3.054-123.459-17.892-7.175-4.231-14.566-7.693-16.424-7.693-4.342 0-21.108 18.511-24.249 26.771-1.41 3.708-2.409 56.601-2.409 127.505v121.171l51.691-1.861 2.521 221.894h17.651l2.521-179.022 107.163-1.361v184.166h20.286l0.003-88.882zM709.97 822.268c-6.095-3.717-17.314-21.822-50.106-80.859-40.67-73.222-42.205-76.503-40.961-87.533 0.885-7.851 3.382-13.55 7.929-18.098l6.637-6.637h183.84l6.637 6.637c4.512 4.512 7.044 10.249 7.909 17.917 1.216 10.788-0.567 14.602-40.906 87.496-44.546 80.503-48.643 85.867-65.56 85.867-4.16 0-11.099-2.155-15.418-4.789zM737.791 712.59c6.353-11.655 11.551-21.867 11.551-22.693s-10.779-1.503-23.954-1.503c-13.175 0-23.954 0.676-23.954 1.503 0 2.001 22.861 43.884 23.954 43.884 0.469 0 6.050-9.536 12.403-21.19zM632.757 394.472c-8.493-4.608-14.532-15.76-14.523-26.816 0.008-10.295 76.98-150.907 88.412-161.498 10.538-9.771 26.954-9.771 37.492 0 11.428 10.596 88.405 151.202 88.412 161.498 0.008 12.11-6.631 23.069-16.47 27.18-12.852 5.37-173.34 5.052-183.317-0.364zM747.398 329.709c-2.684-4.507-8.534-14.719-12.998-22.693s-8.518-14.498-9.009-14.498c-0.49 0-4.544 6.524-9.009 14.498s-10.314 18.186-12.998 22.693l-4.88 8.195h53.774zM343.11 339.291c-55.846-15.401-92.344-71.105-83.602-127.588 10.347-66.845 76.056-111.14 140.119-94.45 41.737 10.871 73.287 41.797 83.723 82.064 19.029 73.435-36.426 144.278-112.231 143.376-9.014-0.107-21.617-1.637-28.008-3.399zM405.272 295.668c13.375-6.882 30.352-25.525 36.809-40.42 6.802-15.69 5.617-44.628-2.471-60.352-28.171-54.765-106.027-54-134.308 1.321-8.97 17.548-8.599 47.115 0.817 65.093 8.081 15.429 26.062 31.956 40.601 37.315 14.836 5.47 45.151 3.939 58.551-2.956z"></path>
</svg>
