<?xml version="1.0" encoding="UTF-8"?>
<svg width="512" height="454.92" version="1.1" viewBox="0 0 512 454.92" xmlns="http://www.w3.org/2000/svg">
  <path d="m466.82 452.18c-11.07-5.1779-16.742-13.629-17.501-26.079-0.60698-9.9602 2.877-18.072 10.498-24.443l5.2885-4.4206-0.0857-26.378-5.1778-3.2824c-2.8472-1.8053-6.5292-5.3252-8.1815-7.8222l-3.0044-4.5398-2.318 3.2499c-6.3212 8.862-14.702 13.835-25.129 14.911-11.44 1.1807-24.918-5.068-30.535-14.157l-2.5331-4.0986-2.3523 3.2969c-7.3571 10.312-15.73 14.681-28.135 14.681-12.342 0-20.77-4.37-28.037-14.538l-2.2546-3.1545-4.0007 5.4065c-7.7519 10.475-22.627 15.107-36.093 11.237-5.6306-1.6182-7.9544-3.1504-13.78-9.0858l-7.0072-7.1393-3.852 5.1975c-7.6832 10.367-22.511 14.91-35.93 11.01-5.5024-1.5996-7.9095-3.1947-13.638-9.0369l-6.9563-7.0946-3.1112 4.37c-5.5572 7.8054-16.682 13.428-26.597 13.442-9.4947 0.0171-16.462-3.112-23.938-10.736l-6.9372-7.0751-3.1351 4.4035c-1.7243 2.4219-5.417 5.7879-8.2061 7.48l-5.071 3.0766-0.036 8.1496-0.036 8.1496 5.1374 4.2097c2.8256 2.3153 6.5549 6.621 8.2873 9.5684 2.6815 4.5616 3.1499 6.6332 3.1499 13.931 0 9.8882-2.1244 15.27-8.5731 21.718-8.2044 8.2044-19.989 11.042-30.862 7.4303-23.536-7.8173-28.132-40.266-7.6083-53.714 2.8588-1.8731 3.0353-2.5111 3.0353-10.973 0-8.7462-0.0871-9.0292-3.2983-10.69-5.1075-2.6412-12.382-11.652-14.461-17.912-1.1955-3.5994-1.6891-7.8322-1.3555-11.626 0.28849-3.281 2.4822-26.051 4.8749-50.6l4.3504-44.634-14.035-79.961c-7.7192-43.978-14.269-80.347-14.555-80.818-0.28592-0.47152-11.987-0.85731-26.003-0.85731-24.548 0-25.621-0.0943-29.25-2.5719-11.178-7.6302-10.274-25.383 1.5797-31.008 3.3461-1.5878 9.0155-1.8556 39.29-1.8556 34.808 0 35.44 0.0429 39.158 2.5719 7.69 5.2338 7.3668 4.0033 20.064 76.396 6.5515 37.355 12.183 69.075 12.515 70.49 0.60235 2.57 0.6219 2.5719 25.443 2.5676l24.84-5e-3 -3.5972-2.1934c-4.6355-2.8265-6.504-8.507-5.9031-17.945 0.39007-6.1254 0.98556-7.8648 3.5811-10.46l3.1133-3.1131h267.38l3.1474 3.1474c2.752 2.752 3.2007 4.2027 3.5716 11.548 0.48781 9.6653-1.4437 14.831-6.3853 17.074-2.5169 1.1429 1.399 1.4773 22.844 1.9508l25.882 0.57182 3.4184 3.2778c1.8802 1.8027 3.9489 4.6319 4.5973 6.2869 0.64812 1.655 4.5504 27.7 8.6708 57.877 4.1207 30.177 8.4547 58.745 9.631 63.484 4.0371 16.265-1.5239 30.542-15.029 38.585l-3.1434 1.872v26.755l3.8786 2.3971c7.6739 4.7428 13.268 15.111 13.268 24.592 0 21.83-23.25 36.83-42.865 27.656zm-279.48-300.07c0-7.0301 3.2594-23.836 6.4461-33.237 9.3927-27.709 30.812-51.847 58.137-65.521 8.392-4.1989 23.046-8.5549 34.21-10.169l9.7982-1.4167v-6.0316c0-5.2045-0.3995-6.2936-2.916-7.9423-9.9182-6.4986-7.6035-22.708 3.8106-26.684 4.2402-1.4771 5.4015-1.4771 9.6413 0 11.414 3.9762 13.729 20.185 3.8107 26.684-2.5163 1.6487-2.9161 2.7377-2.9161 7.9423v6.0316l9.7982 1.4167c50.077 7.2404 88.32 44.452 97.03 94.415 0.96773 5.5494 1.7595 12.079 1.7595 14.512v4.4226h-228.62z" stroke-width="1.143"/>
</svg>
